<?xml version="1.0" standalone="no"?>
<!DOCTYPE svg PUBLIC "-//W3C//DTD SVG 20010904//EN"
 "http://www.w3.org/TR/2001/REC-SVG-20010904/DTD/svg10.dtd">
<svg version="1.0" xmlns="http://www.w3.org/2000/svg"
 width="669.000000pt" height="373.000000pt" viewBox="0 0 669.000000 373.000000"
 preserveAspectRatio="xMidYMid meet">

<g transform="translate(0.000000,373.000000) scale(0.100000,-0.100000)"
fill="#000000" stroke="none">
<path d="M1959 3109 c-141 -174 -398 -442 -585 -610 -62 -55 -270 -201 -404
-281 -79 -47 -373 -209 -498 -273 -78 -40 -117 -78 -104 -101 4 -8 39 -34 77
-58 39 -25 83 -55 98 -67 25 -19 32 -20 55 -9 15 6 24 8 20 4 -4 -4 0 -13 10
-21 15 -13 14 -13 -6 -3 -13 7 -26 9 -29 7 -2 -3 33 -26 79 -52 46 -25 98 -56
116 -67 26 -16 36 -18 42 -8 5 8 10 8 14 2 3 -6 1 -12 -6 -14 -9 -3 45 -43 77
-57 6 -2 25 -17 44 -33 18 -16 40 -27 48 -24 8 3 11 2 8 -3 -3 -5 3 -12 12
-15 10 -3 30 -17 45 -31 15 -14 38 -30 50 -35 40 -18 66 -37 221 -158 50 -39
98 -70 104 -67 7 2 12 1 10 -3 -3 -11 39 -62 51 -62 6 0 13 -9 17 -20 3 -11
25 -31 48 -45 23 -14 38 -25 32 -25 -5 0 2 -8 15 -17 14 -10 29 -17 33 -15 5
1 6 -1 3 -6 -5 -9 47 -62 61 -62 5 0 16 -12 24 -27 19 -37 196 -210 205 -201
2 3 -12 23 -32 46 -20 24 -32 47 -28 53 4 7 3 9 -2 6 -13 -8 -23 0 -66 55 -43
53 -46 61 -20 56 11 -2 18 1 18 7 -1 13 -24 16 -32 4 -3 -6 -12 -5 -22 3 -13
11 -15 10 -9 -5 4 -11 3 -16 -3 -12 -6 3 -10 18 -10 32 0 18 -4 24 -15 20 -8
-4 -17 -1 -21 5 -5 7 -2 8 6 3 8 -5 -11 17 -40 48 -52 54 -86 81 -43 35 11
-13 24 -30 28 -38 8 -13 7 -13 -10 0 -24 19 -70 71 -71 82 -1 4 -2 11 -3 14 0
4 -9 0 -18 -7 -16 -12 -17 -12 -5 2 10 13 9 19 -4 30 -10 8 -19 13 -21 12 -8
-7 -24 -2 -19 5 9 14 -41 61 -159 150 -38 29 -71 48 -73 42 -2 -5 -8 -10 -14
-10 -7 0 -6 5 1 14 9 11 6 18 -18 35 -35 25 -42 26 -34 4 4 -11 3 -14 -6 -9
-7 5 -10 14 -7 21 7 20 -5 26 -23 12 -14 -10 -14 -10 -3 4 10 14 8 19 -15 35
-16 10 -31 17 -35 16 -5 -1 -8 2 -8 8 0 5 -25 24 -55 41 -30 17 -55 35 -55 40
0 11 17 12 22 2 4 -11 58 -48 115 -79 26 -15 54 -35 61 -46 7 -10 22 -18 33
-18 11 0 18 -4 15 -8 -3 -5 4 -16 15 -25 10 -9 19 -15 19 -12 0 2 14 -9 31
-25 18 -15 37 -26 43 -24 6 2 20 -3 31 -12 11 -8 14 -12 6 -8 -9 5 -12 3 -7
-4 4 -7 15 -12 25 -12 21 0 44 -23 34 -33 -3 -4 3 -10 13 -14 10 -4 24 -13 29
-20 6 -7 25 -14 43 -16 29 -2 30 -3 15 -15 -15 -11 -16 -14 -3 -22 8 -5 18 -6
22 -3 5 2 16 -1 25 -9 9 -7 18 -12 19 -11 2 1 14 -1 25 -6 21 -7 21 -8 3 -15
-16 -6 -16 -9 -4 -16 11 -7 12 -10 2 -10 -7 0 -11 -4 -7 -10 3 -5 13 -7 23 -4
12 4 13 3 5 -3 -10 -7 -8 -12 5 -24 13 -12 22 -12 40 -3 20 10 21 12 6 18 -13
5 -14 10 -6 18 9 9 17 7 32 -7 11 -10 23 -16 26 -13 3 3 -7 15 -22 27 -15 11
-23 21 -18 21 5 0 2 5 -6 10 -13 9 -13 10 0 10 19 0 63 -67 54 -82 -4 -6 -3
-8 3 -5 13 8 37 -31 77 -123 16 -36 38 -78 51 -95 20 -28 37 -61 39 -77 1 -3
13 -16 28 -27 14 -12 36 -42 49 -69 12 -26 36 -61 52 -79 28 -30 31 -31 43
-15 28 36 14 109 -80 427 -26 88 -72 232 -102 321 -30 88 -54 166 -54 172 0 9
37 12 128 12 114 1 125 2 108 15 -16 12 -22 12 -28 2 -5 -8 -8 -6 -9 8 -1 11
-1 24 0 29 1 5 -5 6 -14 3 -8 -4 -30 3 -49 14 -19 11 -40 18 -47 17 -8 -2 -13
3 -11 10 1 6 -5 12 -13 12 -8 0 -14 -4 -13 -9 2 -5 -1 -9 -7 -10 -5 -1 -11 4
-11 9 -1 6 -3 13 -4 18 -1 4 -2 10 -1 14 0 4 -5 5 -13 2 -7 -3 -16 1 -19 9 -3
9 -17 13 -39 11 -41 -3 -90 14 -81 30 3 6 0 6 -8 -2 -15 -14 -33 -16 -24 -3 3
5 0 13 -6 17 -7 4 -9 3 -5 -4 3 -6 2 -13 -3 -16 -13 -9 -91 35 -84 47 6 11
-92 1 -111 -10 -6 -4 -21 -8 -35 -9 -13 -2 -27 -7 -30 -13 -4 -6 -12 -6 -20
-2 -7 5 -9 11 -5 13 17 10 109 36 149 43 22 4 45 11 50 15 19 15 66 20 239 25
92 3 173 8 179 12 5 3 7 1 4 -4 -10 -16 39 -25 81 -14 20 5 95 12 167 16 71 4
133 8 136 11 4 2 11 -1 14 -7 4 -5 13 -8 20 -5 28 10 207 37 212 32 4 -3 -1
-6 -10 -6 -9 0 -17 -5 -17 -10 0 -7 6 -7 20 0 11 6 20 15 20 20 0 4 17 14 38
21 20 6 42 15 47 19 6 4 21 11 35 15 27 8 55 19 160 65 214 93 260 115 306
146 34 23 57 33 70 28 13 -4 15 -3 6 3 -15 11 -2 26 34 40 10 4 68 37 127 73
172 104 188 112 194 107 2 -3 -10 -13 -27 -22 -41 -21 -96 -75 -105 -104 -5
-17 -10 -19 -26 -10 -23 12 -62 2 -56 -14 3 -8 -8 -12 -30 -13 -18 0 -39 -7
-46 -14 -10 -10 -9 -12 6 -7 12 5 17 1 17 -13 0 -11 5 -20 11 -20 5 0 7 6 3
13 -4 6 -3 9 1 4 5 -4 19 0 31 8 15 9 25 11 29 5 4 -6 1 -9 -6 -8 -6 2 -14 -3
-17 -11 -3 -9 0 -11 9 -6 12 7 12 5 1 -6 -11 -12 -14 -12 -23 1 -8 12 -9 11
-7 -5 2 -15 -2 -20 -19 -19 -12 1 -22 -1 -21 -5 0 -3 0 -8 -2 -11 -8 -22 -8
-50 0 -50 6 0 10 -7 10 -15 0 -9 -6 -12 -15 -9 -8 4 -13 10 -10 14 3 5 1 11
-4 14 -11 7 -9 25 3 45 6 10 5 12 -2 7 -7 -4 -12 -3 -12 3 0 5 6 11 13 14 9 3
9 7 0 19 -7 8 -10 18 -6 21 3 4 2 7 -3 7 -15 -1 -46 -27 -42 -37 2 -4 -7 -9
-20 -11 -17 -3 -22 -8 -18 -20 5 -15 4 -15 -6 -1 -10 15 -13 15 -30 0 -18 -15
-26 -37 -10 -27 5 3 19 -4 31 -16 18 -16 20 -22 9 -29 -21 -14 -27 -11 -21 11
3 11 0 20 -6 20 -5 0 -8 -7 -5 -15 4 -8 1 -15 -6 -15 -6 0 -8 -4 -5 -10 7 -11
-5 -13 -44 -10 -15 1 -21 -2 -16 -10 4 -6 13 -9 20 -6 7 2 18 -1 25 -7 10 -9
11 -9 5 2 -6 10 -4 12 4 7 7 -5 10 -15 6 -23 -4 -13 -3 -14 10 -3 8 7 13 15
11 19 -3 4 7 8 21 9 15 1 23 -1 20 -5 -4 -3 -1 -13 5 -21 10 -11 9 -17 -4 -26
-14 -10 -13 -13 7 -28 19 -14 26 -15 48 -3 14 7 28 11 31 7 3 -3 6 2 6 11 0
10 -5 17 -11 17 -6 0 6 20 25 43 20 24 33 47 29 51 -4 4 0 4 10 0 9 -3 17 -2
17 4 0 5 7 13 15 16 14 5 14 3 1 -15 -10 -15 -12 -29 -6 -50 11 -36 2 -69 -11
-47 -6 9 -9 7 -9 -8 0 -12 -7 -27 -15 -34 -18 -15 -18 -11 -4 27 7 20 7 25 -1
17 -6 -6 -13 -28 -17 -48 l-6 -38 34 18 c19 9 45 25 59 34 113 78 538 354 590
382 36 19 85 46 110 60 223 121 510 157 706 89 88 -31 241 -128 305 -193 128
-130 205 -345 181 -507 -32 -223 -134 -376 -307 -460 -96 -47 -158 -61 -270
-61 -134 0 -248 34 -351 104 -80 54 -170 155 -203 226 -93 201 -6 443 192 536
66 30 79 50 51 71 -30 23 -216 10 -324 -22 -108 -32 -275 -112 -325 -156 -57
-50 -108 -136 -134 -224 -33 -109 -26 -242 18 -369 56 -161 132 -304 204 -383
36 -39 67 -69 70 -67 3 3 8 -4 12 -15 7 -23 20 -27 30 -11 3 5 0 10 -8 10 -14
0 -50 70 -51 100 0 8 7 14 17 14 9 -1 18 2 18 7 1 5 2 13 3 18 2 16 14 23 26
16 9 -6 9 -9 0 -15 -6 -4 -12 -13 -13 -21 -2 -8 -6 -20 -10 -27 -5 -6 -4 -12
2 -12 5 0 15 8 20 17 8 14 10 14 11 4 0 -12 3 -12 12 -3 14 14 -9 95 -26 89
-10 -3 -46 34 -46 48 0 3 8 4 19 0 11 -3 24 1 32 11 11 14 11 18 -2 28 -10 7
-14 18 -9 30 6 18 7 18 28 -4 12 -13 22 -19 22 -14 0 6 -5 15 -12 22 -7 7 -9
12 -5 12 4 0 -2 18 -13 40 -11 22 -25 40 -30 40 -6 0 -9 3 -9 8 3 19 -2 25
-11 12 -7 -11 -9 -5 -6 20 3 19 5 40 5 45 1 6 21 -30 46 -79 25 -49 50 -95 57
-104 10 -11 9 -17 -7 -28 -17 -13 -17 -15 -2 -32 9 -10 17 -24 17 -30 0 -7 7
-12 15 -12 13 0 13 4 3 22 -7 13 -17 26 -23 30 -6 5 -6 11 1 18 7 7 20 -1 44
-25 19 -19 39 -35 45 -35 6 0 28 -18 50 -40 22 -21 46 -39 54 -40 8 0 12 -3 8
-6 -11 -11 58 -51 170 -98 160 -67 203 -76 388 -79 98 -2 142 2 180 14 89 29
105 31 98 13 -5 -14 -1 -16 23 -11 l29 6 -30 -15 c-25 -13 -26 -14 -5 -9 14 4
31 7 38 7 7 1 11 7 8 15 -3 7 -1 13 4 13 6 0 10 -7 10 -17 0 -14 2 -14 20 2
11 10 20 13 20 7 0 -6 7 -9 15 -6 8 4 22 0 31 -7 14 -12 14 -14 -1 -25 -15
-11 -15 -15 -4 -28 30 -33 39 -46 39 -55 0 -13 -28 -22 -35 -11 -4 6 2 10 12
10 17 1 17 1 1 14 -10 7 -18 19 -18 27 0 8 -5 5 -14 -6 -8 -11 -12 -24 -8 -29
3 -5 -1 -7 -9 -4 -10 4 -15 -1 -15 -12 0 -10 3 -17 7 -15 3 3 15 -3 25 -11 16
-13 16 -15 2 -10 -12 4 -15 1 -11 -11 5 -12 1 -14 -15 -9 -11 4 -23 2 -27 -4
-4 -6 4 -10 20 -10 15 0 24 -4 20 -10 -4 -6 -10 -8 -15 -5 -5 3 -11 1 -14 -4
-7 -11 13 -9 32 2 7 5 10 13 7 18 -4 5 -1 9 4 9 10 0 15 -14 12 -32 -1 -10 11
-10 27 1 17 10 11 47 -6 44 -19 -4 -14 5 9 18 12 6 19 7 16 2 -2 -4 -1 -18 3
-29 9 -22 9 -22 74 10 44 20 66 37 66 49 0 9 5 17 11 17 5 0 7 -5 3 -11 -3 -6
8 -3 25 5 17 9 31 21 31 26 0 16 -18 12 -28 -6 -6 -11 -11 -13 -16 -5 -4 6 -2
11 4 11 6 0 9 4 6 9 -9 13 31 20 43 8 8 -8 11 -8 11 1 0 7 -10 17 -22 22 -16
6 -18 9 -7 9 9 1 22 -6 29 -14 9 -11 17 -12 32 -4 25 13 165 152 196 194 12
17 37 50 55 75 57 77 123 220 150 325 42 164 50 237 45 431 -4 158 -8 190 -32
274 -59 201 -185 412 -348 581 -112 116 -183 167 -334 243 -263 132 -512 184
-784 165 -333 -23 -713 -171 -1125 -438 -331 -214 -643 -362 -923 -437 -86
-24 -121 -27 -307 -31 -206 -5 -358 6 -377 25 -12 12 5 99 102 507 112 471
112 473 100 495 -6 11 -17 20 -25 20 -8 0 -51 -45 -96 -101z m2891 -452 c200
-29 277 -45 328 -67 29 -12 52 -26 52 -31 0 -8 -34 2 -71 21 -21 12 -22 10
-13 -14 3 -9 10 -13 15 -10 13 8 11 -10 -3 -25 -7 -7 -8 -12 -3 -11 20 4 35 0
35 -9 0 -6 -12 -6 -30 -1 -17 5 -28 5 -25 1 7 -13 55 -20 61 -10 3 5 11 9 17
9 7 0 4 -5 -6 -11 -9 -6 -15 -15 -12 -20 4 -5 11 -7 16 -4 5 4 9 2 9 -3 0 -5
7 -9 16 -9 15 0 14 2 -1 14 -24 17 -13 28 14 13 12 -6 21 -7 21 -3 0 5 -22 17
-50 28 -31 12 -46 23 -40 29 6 6 15 5 24 -3 8 -7 20 -10 26 -6 5 3 10 0 10 -8
0 -7 16 -19 35 -27 19 -7 36 -19 39 -27 6 -15 -10 -18 -19 -3 -3 6 -11 10 -16
10 -6 0 -7 -5 -3 -12 4 -6 3 -8 -4 -4 -6 3 -13 2 -16 -3 -9 -14 -58 -5 -72 13
-8 11 -14 13 -19 7 -3 -6 -12 -11 -18 -11 -8 0 -8 3 1 9 11 7 10 10 -3 15 -9
3 -22 3 -27 -1 -7 -3 -8 -1 -4 5 4 8 0 12 -11 12 -12 1 -9 5 11 13 l28 12 -26
14 c-31 17 -35 36 -6 28 13 -3 20 0 20 9 0 8 -3 14 -6 14 -3 0 -56 9 -118 20
-62 11 -151 21 -198 22 -47 2 -84 6 -82 9 4 8 -84 19 -146 19 -31 0 -41 -3
-30 -9 8 -6 26 -8 40 -7 14 2 19 1 13 -1 -16 -5 -17 -33 -2 -33 5 0 8 -4 5 -9
-3 -4 6 -6 19 -3 15 2 25 0 25 -7 0 -7 5 -9 10 -6 6 3 10 2 10 -4 0 -5 -6 -12
-12 -14 -8 -3 -5 -6 6 -6 16 -1 17 -3 5 -18 -12 -14 -12 -16 0 -8 10 5 12 4 7
-3 -4 -7 -14 -12 -22 -12 -8 0 -13 -4 -9 -9 3 -5 1 -13 -5 -16 -6 -4 -9 -1 -8
7 2 9 -5 12 -22 9 -14 -3 -37 -5 -52 -5 -14 -1 -23 -5 -20 -11 3 -5 -2 -4 -11
4 -11 9 -17 10 -17 2 0 -6 -5 -11 -11 -11 -5 0 -8 4 -4 9 10 17 -12 21 -25 5
-11 -12 -15 -12 -21 -2 -6 10 -13 7 -29 -10 -11 -12 -24 -22 -28 -22 -4 1 13
19 38 42 25 22 39 37 32 33 -9 -5 -12 -1 -10 11 2 13 -3 19 -14 18 -10 -1 -15
3 -12 8 3 5 12 7 20 4 7 -3 16 -1 19 4 3 4 -1 11 -7 13 -12 5 12 9 71 11 13 1
26 7 29 15 3 10 0 12 -12 8 -9 -4 -15 -2 -13 6 2 15 -4 14 -117 -9 -49 -10
-84 -20 -78 -22 7 -2 10 -8 6 -13 -3 -5 17 0 45 11 28 11 51 16 51 11 0 -19
-56 -49 -89 -48 -33 2 -35 0 -35 -32 -1 -20 -7 -36 -15 -39 -9 -3 -11 0 -6 8
6 10 2 12 -13 8 -12 -4 -25 -2 -28 3 -3 5 10 9 28 10 31 1 32 1 8 9 -23 7 -23
8 -3 9 16 1 20 6 16 21 -3 12 0 20 7 20 7 0 10 7 6 15 -7 19 -5 20 109 45 105
23 253 22 425 -3z m-70 -42 c-14 -17 -30 -20 -30 -6 0 5 8 12 18 14 9 3 19 5
21 6 2 0 -2 -6 -9 -14z m70 11 c0 -3 -4 -8 -10 -11 -5 -3 -10 -1 -10 4 0 6 5
11 10 11 6 0 10 -2 10 -4z m78 -10 c3 -3 0 -6 -7 -6 -7 0 -11 -7 -8 -15 4 -8
1 -17 -5 -21 -7 -4 -8 -3 -4 4 5 8 -1 12 -16 12 -16 0 -19 -3 -10 -8 8 -6 3
-9 -15 -10 -34 -1 -55 -5 -68 -14 -6 -4 -16 2 -23 12 -15 25 -2 32 48 29 21
-2 42 0 46 3 3 4 13 4 22 1 14 -4 15 -3 2 5 -10 8 -18 8 -27 0 -10 -8 -12 -7
-7 5 4 11 15 15 36 12 17 -2 33 -6 36 -9z m-713 -37 c-195 -88 -263 -123 -453
-237 -29 -18 -51 -28 -47 -22 9 15 108 77 201 125 45 24 92 50 105 58 13 8 69
34 124 58 55 23 104 46 110 51 5 4 18 8 30 8 11 0 -20 -19 -70 -41z m835 15
c0 -2 -11 -3 -24 -2 -14 1 -23 5 -20 9 4 7 44 0 44 -7z m-305 -4 c3 -5 1 -10
-4 -10 -6 0 -11 5 -11 10 0 6 2 10 4 10 3 0 8 -4 11 -10z m-490 -30 c-3 -5
-14 -10 -23 -10 -15 0 -15 2 -2 10 20 13 33 13 25 0z m509 2 c3 -5 -1 -9 -9
-9 -8 0 -12 4 -9 9 3 4 7 8 9 8 2 0 6 -4 9 -8z m329 -6 c20 -16 22 -25 3 -22
-19 3 -51 36 -34 36 7 0 21 -7 31 -14z m227 -33 c101 -53 274 -202 256 -220
-3 -4 -30 20 -60 53 -29 33 -66 66 -82 74 -16 8 -40 25 -54 38 -14 13 -51 37
-82 53 -32 16 -58 31 -58 34 0 6 35 -8 80 -32z m-910 2 c0 -1 -8 -9 -17 -16
-14 -12 -16 -12 -9 1 4 8 -1 5 -12 -7 -11 -13 -23 -23 -26 -23 -8 0 16 43 28
52 8 5 36 0 36 -7z m-267 -2 c-7 -2 -13 -9 -13 -15 0 -5 -7 -16 -15 -24 -8 -9
-15 -12 -15 -7 0 16 31 53 43 52 9 0 9 -2 0 -6z m547 -7 c0 -2 -7 -7 -16 -10
-8 -3 -12 -2 -9 4 6 10 25 14 25 6z m375 -6 c3 -5 1 -10 -4 -10 -6 0 -11 5
-11 10 0 6 2 10 4 10 3 0 8 -4 11 -10z m-787 -16 c8 -9 8 -15 -4 -25 -12 -10
-13 -9 -8 6 5 12 4 16 -3 12 -6 -4 -13 -1 -16 6 -6 17 15 18 31 1z m872 -39
c8 -2 15 -4 15 -5 0 -1 11 -3 25 -6 14 -2 35 -16 48 -30 16 -18 22 -21 22 -10
0 9 6 16 14 16 22 0 46 -11 46 -22 0 -5 -4 -6 -10 -3 -5 3 -10 -1 -10 -10 0
-9 5 -13 10 -10 6 3 10 2 10 -4 0 -6 -12 -8 -30 -4 -22 4 -30 2 -30 -8 0 -8
-11 -2 -25 14 -14 15 -25 25 -25 22 0 -4 -14 5 -31 19 -17 14 -41 29 -55 32
-13 3 -24 11 -24 16 0 6 8 7 18 3 9 -4 24 -8 32 -10z m267 -47 c-3 -8 -6 -5
-6 6 -1 11 2 17 5 13 3 -3 4 -12 1 -19z m98 -72 c11 -9 14 -16 8 -16 -7 0 -13
-7 -13 -15 0 -13 4 -14 20 -5 24 13 24 10 6 -35 -8 -18 -12 -36 -9 -38 2 -3
-2 -4 -9 -3 -7 0 -15 -3 -16 -9 -2 -5 -8 -18 -13 -27 -7 -13 -6 -18 2 -18 7 0
9 -3 5 -7 -4 -5 -14 1 -22 11 -8 11 -14 14 -14 8 0 -7 -4 -12 -9 -12 -11 0 -6
40 6 49 5 3 10 15 11 26 2 11 1 17 -4 13 -8 -9 -34 9 -34 24 0 5 9 4 20 -2 19
-10 20 -10 8 9 -6 11 -16 18 -20 15 -4 -3 -5 2 -2 11 6 14 8 14 21 -2 8 -10
11 -12 7 -4 -5 11 -3 13 9 8 9 -3 19 -2 22 3 4 6 2 10 -2 10 -5 0 -14 9 -21
21 -12 18 -11 19 5 10 10 -5 27 -16 38 -25z m-125 -20 c0 -6 -4 -5 -9 3 -7 11
-9 11 -14 0 -3 -8 -4 -4 -4 8 1 17 4 19 14 11 7 -6 13 -16 13 -22z m15 -33
c-15 -11 -15 -14 -3 -10 9 3 23 -2 33 -12 14 -17 14 -20 1 -34 -8 -8 -12 -18
-8 -22 4 -5 1 -5 -6 -1 -7 5 -11 15 -7 24 3 9 3 13 -1 9 -4 -4 -13 3 -19 16
-12 23 -3 47 19 47 6 0 2 -8 -9 -17z m-3824 -69 c-28 -67 -69 -144 -77 -144
-3 0 9 26 25 58 16 31 39 81 52 110 12 29 23 51 25 49 2 -2 -9 -34 -25 -73z
m4019 66 c0 -5 -2 -10 -4 -10 -3 0 -8 5 -11 10 -3 6 -1 10 4 10 6 0 11 -4 11
-10z m89 -125 c0 -5 -17 10 -39 35 -22 25 -39 50 -39 55 0 6 17 -10 39 -35 22
-25 39 -49 39 -55z m-151 30 c-3 -13 -1 -22 3 -19 5 3 9 1 9 -5 0 -5 -4 -13
-10 -16 -5 -3 -10 -12 -10 -18 0 -8 2 -9 8 -1 4 6 15 11 25 11 9 0 14 -3 11
-6 -3 -3 -7 -4 -9 -1 -1 3 -13 -4 -26 -15 -12 -11 -19 -14 -15 -7 4 6 3 12 -3
12 -8 0 -9 61 -2 88 1 1 6 2 12 2 7 0 9 -10 7 -25z m47 -25 c3 -5 1 -10 -4
-10 -6 0 -11 5 -11 10 0 6 2 10 4 10 3 0 8 -4 11 -10z m-2027 -26 c1 -1 -4 -7
-13 -14 -13 -11 -14 -10 -9 3 4 12 1 14 -15 10 -13 -3 -21 -1 -21 6 0 7 5 9
10 6 6 -3 10 -1 10 6 0 8 5 8 18 -2 9 -7 18 -14 20 -15z m2156 -10 c5 -14 4
-15 -9 -4 -17 14 -19 20 -6 20 5 0 12 -7 15 -16z m-2222 -83 c-17 -30 -32 -33
-28 -5 2 15 23 34 38 34 4 0 0 -13 -10 -29z m-1999 2 c-3 -10 -11 -25 -18 -33
-7 -8 -15 -24 -19 -34 -3 -10 -9 -16 -13 -12 -4 3 2 19 13 34 11 15 23 35 27
45 3 9 9 17 11 17 3 0 3 -8 -1 -17z m2064 -25 c-3 -8 -6 -5 -6 6 -1 11 2 17 5
13 3 -3 4 -12 1 -19z m2203 -11 c0 -4 -6 -2 -14 5 -8 7 -12 17 -9 22 5 8 23
-12 23 -27z m-2374 -32 c-3 -9 4 -15 17 -17 28 -4 28 -30 0 -43 -23 -10 -39
-45 -20 -45 6 0 8 -2 6 -5 -3 -2 -15 -2 -27 2 -17 4 -20 8 -11 19 6 7 8 18 4
24 -3 5 0 10 7 11 10 0 10 2 1 6 -18 7 -16 32 3 40 8 3 13 12 10 20 -4 8 -1
11 5 8 6 -4 8 -13 5 -20z m135 -8 c-10 -9 -11 -8 -5 6 3 10 9 15 12 12 3 -3 0
-11 -7 -18z m2254 -7 c3 -5 1 -10 -4 -10 -6 0 -11 5 -11 10 0 6 2 10 4 10 3 0
8 -4 11 -10z m-4355 -40 c-6 -11 -16 -20 -22 -20 -6 0 -3 9 7 20 10 11 20 20
22 20 2 0 -1 -9 -7 -20z m2800 -4 c0 -2 -7 -7 -16 -10 -8 -3 -12 -2 -9 4 6 10
25 14 25 6z m1577 -58 c-3 -8 -6 -5 -6 6 -1 11 2 17 5 13 3 -3 4 -12 1 -19z
m-4382 -8 c-3 -5 -10 -10 -16 -10 -5 0 -9 5 -9 10 0 6 7 10 16 10 8 0 12 -4 9
-10z m4392 -32 c-3 -8 -6 -5 -6 6 -1 11 2 17 5 13 3 -3 4 -12 1 -19z m-5257
-58 c8 -5 11 -10 5 -10 -5 0 -17 5 -25 10 -8 5 -10 10 -5 10 6 0 17 -5 25 -10z
m161 -87 c13 -16 12 -17 -3 -4 -17 13 -22 21 -14 21 2 0 10 -8 17 -17z m59
-23 c18 -12 2 -12 -25 0 -13 6 -15 9 -5 9 8 0 22 -4 30 -9z m45 -28 c16 -12
16 -32 0 -26 -8 4 -13 10 -10 14 3 5 -1 11 -7 13 -7 3 -8 6 -3 6 6 0 15 -3 20
-7z m151 -79 c15 -13 22 -23 16 -23 -6 0 -13 4 -17 9 -10 17 -66 40 -83 35
-14 -5 -15 -4 -2 5 8 6 10 11 4 11 -5 0 -19 7 -30 15 -11 8 3 6 33 -7 29 -12
64 -32 79 -45z m3053 -35 c0 -27 -2 -29 -8 -13 -5 11 -6 26 -4 33 8 21 13 13
12 -20z m11 -52 c0 -3 -4 -8 -10 -11 -5 -3 -10 -1 -10 4 0 6 5 11 10 11 6 0
10 -2 10 -4z m-2723 -22 c-3 -3 -12 -4 -19 -1 -8 3 -5 6 6 6 11 1 17 -2 13 -5z
m233 -32 c0 -13 -3 -12 -15 4 -19 25 -19 40 0 24 8 -7 15 -20 15 -28z m2504
-7 c3 -8 1 -15 -3 -15 -5 0 -11 7 -15 15 -3 8 -1 15 3 15 5 0 11 -7 15 -15z
m-2529 -34 c-3 -6 1 -14 10 -18 12 -7 12 -10 -3 -19 -15 -10 -17 -8 -16 15 3
31 3 31 10 31 3 0 3 -4 -1 -9z m59 -7 c5 -14 4 -15 -9 -4 -17 14 -19 20 -6 20
5 0 12 -7 15 -16z m-149 -24 c-12 -4 -15 -9 -8 -13 6 -4 18 0 27 8 9 9 17 11
21 5 9 -15 -16 -36 -45 -37 -14 0 -19 1 -12 4 10 4 10 8 1 20 -10 12 -10 16 1
23 8 5 18 6 24 3 5 -4 1 -9 -9 -13z m188 -64 c9 8 15 12 13 9 -2 -4 7 -18 20
-32 26 -28 30 -43 13 -43 -5 0 -8 3 -5 8 2 4 -2 16 -10 27 -13 17 -14 17 -14
1 0 -9 -4 -14 -10 -11 -6 3 -7 -1 -4 -9 3 -9 11 -16 18 -16 6 0 3 -5 -6 -11
-10 -5 -18 -14 -18 -19 0 -16 32 -11 53 8 20 17 20 17 2 -10 -16 -25 -14 -33
8 -29 12 2 8 -27 -5 -32 -18 -6 -70 32 -61 45 4 7 1 9 -9 6 -9 -4 -28 5 -47
23 -17 15 -35 27 -39 26 -17 -5 -11 39 8 51 13 8 20 8 20 1 0 -5 5 -7 10 -4 6
4 7 12 3 18 -4 7 4 4 18 -5 23 -14 28 -15 42 -2z m-103 0 c0 -2 -7 -9 -15 -16
-12 -10 -15 -10 -15 4 0 9 7 16 15 16 8 0 15 -2 15 -4z m2547 -101 c0 -8 -4
-12 -9 -9 -5 3 -6 10 -3 15 9 13 12 11 12 -6z m-2358 -25 c11 -24 11 -24 -3
-6 -9 11 -16 24 -16 30 0 12 5 7 19 -24z m2354 -13 c-3 -5 -11 -6 -18 -3 -8 3
-15 0 -18 -7 -2 -7 -5 -5 -9 4 -4 11 1 15 22 14 16 0 26 -4 23 -8z m-93 -11
c0 -2 -8 -10 -17 -17 -16 -13 -17 -12 -4 4 13 16 21 21 21 13z m1630 -21 c-7
-8 -18 -15 -24 -15 -6 0 -4 5 4 10 8 5 11 10 5 10 -5 0 -3 4 5 10 20 12 26 4
10 -15z m-1660 -55 c0 -5 -5 -10 -11 -10 -5 0 -7 5 -4 10 3 6 8 10 11 10 2 0
4 -4 4 -10z m90 -25 c0 -2 -9 -3 -19 -2 -11 0 -18 5 -15 9 4 6 34 0 34 -7z
m1493 0 c-3 -9 -8 -14 -10 -11 -3 3 -2 9 2 15 9 16 15 13 8 -4z m-1512 -48
c-10 -9 -11 -8 -5 6 3 10 9 15 12 12 3 -3 0 -11 -7 -18z m1466 -6 c-1 -12 -9
-18 -24 -18 -27 0 -30 12 -5 26 25 15 31 13 29 -8z m177 -20 c4 -5 -3 -7 -14
-4 -23 6 -26 13 -6 13 8 0 17 -4 20 -9z m-207 -23 c22 -21 24 -21 17 -3 -8 21
-6 21 16 -8 11 -16 11 -18 -1 -15 -8 2 -13 -3 -11 -11 2 -8 -3 -11 -13 -8 -10
5 -15 0 -15 -13 0 -10 -5 -22 -10 -25 -7 -4 -9 2 -5 18 7 28 -10 46 -28 28
-17 -17 -31 -13 -17 4 23 28 -2 35 -49 15 -24 -11 -49 -20 -57 -20 -8 0 -14
-4 -14 -8 0 -4 -9 -8 -20 -8 -25 0 -14 10 25 24 17 6 55 20 85 31 69 26 69 26
97 -1z m133 -34 c0 -8 -5 -12 -10 -9 -6 4 -8 11 -5 16 9 14 15 11 15 -7z m60
-22 c0 -15 -2 -15 -10 -2 -13 20 -13 33 0 25 6 -3 10 -14 10 -23z m-305 8 c3
-5 -1 -10 -10 -10 -9 0 -13 5 -10 10 3 6 8 10 10 10 2 0 7 -4 10 -10z m160
-20 c-4 -6 -12 -7 -18 -3 -7 4 -6 0 2 -10 15 -19 2 -24 -16 -6 -9 9 -10 7 -6
-9 3 -12 9 -20 13 -17 4 3 11 -2 14 -10 3 -8 10 -14 15 -13 9 3 11 -2 11 -22
0 -15 -16 -12 -33 5 -8 8 -21 16 -28 17 -15 3 -39 23 -39 33 0 3 4 4 8 1 5 -3
14 5 21 17 7 13 23 24 37 25 15 1 23 -2 19 -8z m95 -10 c-8 -5 -19 -10 -25
-10 -5 0 -3 5 5 10 8 5 20 10 25 10 6 0 3 -5 -5 -10z m-4 -52 c4 -7 3 -8 -5
-4 -6 4 -14 1 -17 -8 -3 -8 -12 -12 -20 -9 -8 3 -11 9 -8 14 3 5 10 7 15 4 5
-4 9 -1 9 4 0 15 17 14 26 -1z m-143 -36 c-10 -11 -21 -17 -25 -15 -11 6 14
32 30 33 8 0 6 -7 -5 -18z m90 -19 c-7 -2 -19 -2 -25 0 -7 3 -2 5 12 5 14 0
19 -2 13 -5z m-63 -55 c0 -5 -4 -8 -10 -8 -5 0 -10 6 -10 13 0 8 -3 7 -10 -3
-7 -12 -9 -10 -8 6 2 18 5 20 20 10 10 -6 18 -14 18 -18z"/>
<path d="M4375 2600 c-3 -5 -2 -10 4 -10 5 0 13 5 16 10 3 6 2 10 -4 10 -5 0
-13 -4 -16 -10z"/>
<path d="M4493 2567 c-3 -6 -1 -7 5 -3 5 3 12 1 14 -6 3 -8 6 -7 10 3 7 17
-19 22 -29 6z"/>
<path d="M4604 2569 c-4 -8 -3 -9 4 -5 7 4 12 2 12 -3 0 -6 5 -11 11 -11 13 0
7 22 -8 27 -6 2 -15 -1 -19 -8z"/>
<path d="M5200 2420 c0 -5 5 -10 11 -10 5 0 7 5 4 10 -3 6 -8 10 -11 10 -2 0
-4 -4 -4 -10z"/>
<path d="M3535 2190 c-3 -5 -2 -10 4 -10 5 0 13 5 16 10 3 6 2 10 -4 10 -5 0
-13 -4 -16 -10z"/>
<path d="M3070 1930 c0 -5 5 -10 11 -10 5 0 7 5 4 10 -3 6 -8 10 -11 10 -2 0
-4 -4 -4 -10z"/>
<path d="M3104 1915 c4 -12 0 -14 -19 -9 -14 3 -25 2 -25 -3 0 -11 56 -10 67
0 3 4 0 7 -8 7 -11 0 -11 2 1 10 13 8 12 10 -4 10 -12 0 -16 -5 -12 -15z"/>
<path d="M2986 1895 c-19 -20 -20 -31 -3 -41 6 -4 9 -3 4 1 -4 5 0 17 10 27
21 23 11 35 -11 13z"/>
<path d="M2940 1865 c-10 -12 -10 -15 4 -15 9 0 16 7 16 15 0 8 -2 15 -4 15
-2 0 -9 -7 -16 -15z"/>
<path d="M3098 1855 c5 -29 17 -32 26 -8 4 9 1 20 -6 25 -21 13 -25 9 -20 -17z"/>
<path d="M3145 1869 c-4 -6 -4 -13 -1 -16 3 -4 6 -1 6 6 0 7 4 10 9 6 5 -3 12
-1 16 5 3 5 -1 10 -9 10 -8 0 -18 -5 -21 -11z"/>
<path d="M3252 1866 c7 -7 19 -11 25 -9 22 9 14 23 -12 23 -21 0 -24 -2 -13
-14z"/>
<path d="M3097 1813 c-11 -3 -27 -13 -37 -23 -15 -15 -16 -21 -6 -29 10 -9 20
-3 40 24 15 19 26 34 24 34 -2 -1 -11 -3 -21 -6z"/>
<path d="M3307 1795 c-16 -23 -16 -24 0 -34 10 -6 12 -11 6 -11 -7 0 -15 1
-17 3 -2 1 -13 -6 -24 -16 -11 -10 -23 -17 -28 -16 -21 4 -35 -2 -29 -11 3 -5
1 -10 -4 -10 -6 0 -11 -4 -11 -9 0 -10 125 52 150 74 9 8 19 13 22 10 3 -3 11
3 19 12 13 16 12 17 -3 5 -12 -9 -18 -10 -23 -2 -4 7 -15 10 -25 7 -13 -3 -17
0 -13 9 8 21 0 16 -20 -11z m53 -9 c0 -2 -7 -9 -15 -16 -13 -11 -14 -10 -9 4
5 14 24 23 24 12z"/>
<path d="M3410 1810 c0 -5 5 -10 10 -10 6 0 10 5 10 10 0 6 -4 10 -10 10 -5 0
-10 -4 -10 -10z"/>
<path d="M2738 1773 c-10 -2 -18 -9 -18 -14 0 -5 -7 -9 -16 -9 -9 0 -12 5 -8
13 5 9 4 9 -6 0 -17 -16 -9 -25 24 -27 14 0 26 -5 26 -9 0 -5 5 -5 10 -2 18
11 11 27 -10 22 -11 -3 -18 -1 -14 4 3 5 14 9 25 9 10 0 19 5 19 10 0 10 -3
11 -32 3z"/>
<path d="M2898 1739 c-10 -10 -14 -19 -10 -19 5 0 17 9 27 20 10 11 14 20 9
19 -5 0 -17 -9 -26 -20z"/>
<path d="M2975 1753 c11 -3 25 -9 31 -14 8 -6 13 -5 17 3 3 9 -7 13 -32 14
-20 1 -27 0 -16 -3z"/>
<path d="M2940 1740 c0 -5 5 -10 11 -10 5 0 7 5 4 10 -3 6 -8 10 -11 10 -2 0
-4 -4 -4 -10z"/>
<path d="M3083 1738 c-18 -5 -33 -13 -33 -18 0 -13 7 -13 32 1 18 10 20 9 15
-5 -3 -8 -2 -18 3 -21 6 -4 10 -1 10 6 0 7 7 4 15 -7 19 -26 19 -38 -2 -30
-10 4 -14 4 -10 0 4 -4 2 -14 -5 -21 -6 -8 5 -5 25 7 36 21 48 52 27 65 -5 3
-10 1 -10 -4 0 -6 -5 -11 -11 -11 -5 0 -8 3 -5 8 2 4 -1 14 -7 23 -9 12 -19
14 -44 7z"/>
<path d="M2368 1728 c5 -5 16 -8 23 -6 8 3 3 7 -10 11 -17 4 -21 3 -13 -5z"/>
<path d="M2462 1712 c-28 -21 -37 -24 -52 -14 -14 9 -19 8 -24 -4 -3 -9 -1
-12 4 -9 6 3 10 1 10 -4 0 -14 40 -14 60 -1 13 9 13 10 0 10 -13 0 -13 1 0 10
8 5 26 6 40 3 23 -6 24 -5 10 13 -8 10 -14 20 -15 20 0 1 -15 -10 -33 -24z"/>
<path d="M2293 1718 c2 -7 17 -13 33 -14 17 0 28 -6 27 -12 -4 -16 14 -15 19
0 3 7 -7 19 -21 26 -17 9 -27 10 -29 3 -2 -6 -8 -11 -13 -11 -6 0 -7 5 -4 10
3 6 1 10 -5 10 -7 0 -10 -6 -7 -12z"/>
<path d="M2790 1714 c0 -7 -8 -18 -17 -24 -16 -10 -16 -11 -1 -6 13 4 15 1 11
-11 -5 -12 -2 -15 10 -10 12 4 14 2 10 -10 -4 -10 -2 -14 4 -10 6 4 14 1 16
-5 4 -9 6 -7 6 3 1 9 -6 22 -14 29 -15 13 -21 35 -7 26 4 -2 8 3 8 13 0 10 -6
18 -13 18 -7 0 -13 -6 -13 -13z"/>
<path d="M1793 1713 c17 -4 17 -6 -3 -23 -13 -11 -19 -24 -14 -31 5 -9 2 -10
-10 -6 -11 4 -15 3 -11 -4 4 -6 13 -8 21 -5 8 3 14 1 14 -3 0 -5 -6 -11 -12
-13 -7 -3 -2 -7 11 -11 16 -4 21 -2 18 7 -3 7 3 19 13 26 11 8 17 17 14 22 -3
4 -1 8 5 8 13 0 34 -38 26 -49 -3 -5 8 -4 25 2 33 13 38 22 15 31 -24 9 -18
37 8 35 36 -3 71 1 64 7 -3 3 -50 7 -104 9 -54 1 -90 0 -80 -2z m90 -10 c-9
-3 -10 -10 -3 -23 7 -13 7 -21 -2 -26 -7 -4 -8 -3 -4 4 3 6 -3 16 -14 22 -25
13 -20 25 12 27 13 0 17 -1 11 -4z m-73 -43 c0 -5 -4 -10 -10 -10 -5 0 -10 5
-10 10 0 6 5 10 10 10 6 0 10 -4 10 -10z"/>
<path d="M1997 1707 c-7 -17 9 -44 20 -34 4 5 1 12 -7 17 -10 7 -11 10 -2 10
6 0 12 5 12 10 0 15 -17 12 -23 -3z"/>
<path d="M1670 1701 c0 -10 19 -25 25 -20 1 2 -3 10 -11 17 -8 7 -14 8 -14 3z"/>
<path d="M2558 1694 c12 -9 22 -22 22 -29 0 -7 7 -15 15 -19 8 -3 15 -1 15 4
0 6 -6 10 -12 10 -7 0 -4 8 7 16 l20 16 -20 -3 c-11 -2 -31 2 -45 9 l-25 13
23 -17z"/>
<path d="M3067 1704 c-4 -4 -7 -21 -7 -38 0 -20 -3 -26 -8 -18 -5 7 -16 10
-25 6 -13 -5 -16 -2 -11 10 4 11 1 16 -11 16 -12 0 -15 -5 -10 -22 6 -19 5
-21 -6 -10 -7 6 -20 12 -28 11 -11 0 -12 -2 -3 -6 10 -4 10 -8 1 -19 -9 -11
-8 -14 5 -14 9 0 16 -4 16 -10 0 -5 7 -10 15 -10 8 0 15 5 15 11 0 5 -5 7 -12
3 -7 -5 -8 -3 -3 5 5 8 18 11 37 7 26 -5 30 -2 40 25 8 23 13 27 19 17 5 -7 9
-8 9 -2 0 17 -25 46 -33 38z"/>
<path d="M1710 1686 c0 -2 7 -6 15 -10 8 -3 15 -1 15 4 0 6 -7 10 -15 10 -8 0
-15 -2 -15 -4z"/>
<path d="M1944 1659 c-17 -7 -16 -8 5 -8 17 -1 22 -5 17 -17 -6 -15 -4 -15 10
-3 14 12 19 10 39 -15 15 -19 27 -26 36 -21 9 6 6 11 -11 17 -22 8 -22 9 -5
28 10 11 16 20 14 21 -21 5 -91 3 -105 -2z m91 -9 c-3 -5 -12 -10 -18 -10 -7
0 -6 4 3 10 19 12 23 12 15 0z"/>
<path d="M2542 1659 c2 -6 8 -10 13 -10 5 0 11 4 13 10 2 6 -4 11 -13 11 -9 0
-15 -5 -13 -11z"/>
<path d="M2620 1660 c0 -5 4 -10 9 -10 6 0 13 5 16 10 3 6 -1 10 -9 10 -9 0
-16 -4 -16 -10z"/>
<path d="M2880 1651 c0 -6 4 -12 8 -15 5 -3 9 1 9 9 0 8 -4 15 -9 15 -4 0 -8
-4 -8 -9z"/>
<path d="M2760 1633 c0 -7 8 -16 17 -21 15 -9 15 -11 1 -25 -9 -9 -19 -13 -23
-9 -5 4 -5 1 -1 -5 4 -7 14 -13 23 -13 10 0 13 -6 9 -16 -5 -12 -2 -15 10 -10
8 3 18 6 20 6 3 0 2 5 -1 10 -3 6 1 10 9 10 9 0 16 -7 16 -15 0 -20 13 -19 41
5 15 12 17 18 8 14 -10 -3 -20 0 -24 5 -3 6 -11 8 -17 5 -7 -5 -9 0 -6 14 4
13 0 23 -9 26 -23 9 -30 7 -13 -4 12 -7 12 -10 1 -10 -7 0 -11 -6 -8 -15 7
-17 -8 -29 -23 -20 -8 5 -7 11 1 21 10 12 8 19 -9 37 -12 12 -22 16 -22 10z"/>
<path d="M1904 1615 c1 -8 6 -18 11 -22 4 -5 5 -2 0 6 -6 10 -4 13 6 9 61 -25
67 -22 12 6 -26 13 -31 13 -29 1z"/>
<path d="M2105 1619 c-10 -14 -1 -21 19 -13 9 3 13 10 10 15 -7 12 -21 11 -29
-2z"/>
<path d="M2525 1622 c-17 -12 -41 -47 -27 -38 6 4 12 2 12 -3 0 -6 5 -11 10
-11 6 0 10 11 10 24 0 13 6 27 13 29 6 3 8 6 2 6 -5 0 -14 -3 -20 -7z"/>
<path d="M2276 1613 c-11 -11 -6 -23 10 -23 8 0 12 5 9 10 -8 14 -1 13 42 -5
35 -15 36 -15 20 3 -17 18 -68 27 -81 15z"/>
<path d="M2600 1601 c0 -6 4 -13 10 -16 6 -3 7 1 4 9 -7 18 -14 21 -14 7z"/>
<path d="M2067 1586 c-3 -8 0 -19 7 -26 10 -8 15 -7 19 4 3 8 0 19 -7 26 -10
8 -15 7 -19 -4z"/>
<path d="M2140 1593 c0 -7 -6 -11 -12 -9 -7 1 -10 1 -5 -1 4 -3 5 -9 2 -13 -9
-14 12 -21 23 -7 7 8 7 18 2 27 -6 10 -10 11 -10 3z"/>
<path d="M2001 1581 c-9 -6 -10 -11 -2 -15 6 -4 8 -12 5 -18 -4 -7 -2 -8 4 -4
7 4 12 3 12 -2 0 -5 11 -12 25 -14 13 -3 22 -1 19 3 -3 5 -12 9 -20 9 -8 0
-13 4 -10 9 9 14 -18 41 -33 32z"/>
<path d="M1955 1570 c3 -5 8 -10 11 -10 2 0 4 5 4 10 0 6 -5 10 -11 10 -5 0
-7 -4 -4 -10z"/>
<path d="M2298 1563 c18 -7 37 -11 43 -8 20 13 7 20 -33 21 l-43 1 33 -14z"/>
<path d="M2476 1554 c-4 -11 -14 -15 -31 -11 -14 2 -28 0 -31 -4 -3 -5 11 -9
30 -9 23 0 35 -4 34 -12 -2 -6 6 -14 17 -16 17 -4 18 -2 6 12 -11 14 -11 16 3
16 15 0 21 -12 17 -33 -1 -5 3 -6 9 -2 7 5 5 17 -7 38 -22 36 -38 44 -47 21z"/>
<path d="M2385 1550 c-3 -6 1 -7 9 -4 18 7 21 14 7 14 -6 0 -13 -4 -16 -10z"/>
<path d="M2646 1548 c3 -4 1 -8 -4 -8 -5 0 -9 -6 -9 -13 0 -9 12 -13 33 -13
31 1 38 16 7 16 -12 0 -13 3 -3 14 9 12 8 15 -9 13 -11 0 -17 -5 -15 -9z"/>
<path d="M2338 1530 c-8 -12 -24 -20 -40 -20 -20 0 -26 -4 -22 -15 4 -9 0 -15
-8 -15 -8 0 -15 -7 -15 -15 0 -10 4 -12 12 -5 9 8 14 6 19 -5 7 -20 32 -19 40
1 3 9 13 14 20 11 8 -3 17 -1 20 6 3 9 5 9 5 0 1 -7 7 -13 15 -13 8 0 17 -6
20 -12 5 -10 7 -10 12 0 3 6 9 10 14 7 5 -3 7 3 5 12 -2 10 -4 24 -4 32 -1 9
-7 11 -18 6 -10 -4 -26 -7 -35 -7 -10 0 -20 -3 -23 -9 -4 -5 -11 -9 -17 -9 -6
0 -3 9 7 20 10 11 22 17 26 14 5 -3 9 0 9 5 0 6 -7 11 -16 11 -8 0 -12 5 -9
10 3 6 4 10 1 10 -3 0 -11 -9 -18 -20z m-18 -49 c0 -10 -7 -21 -15 -25 -11 -4
-14 1 -13 19 3 29 28 34 28 6z m105 -12 c-7 -10 -35 -1 -35 11 0 5 9 6 20 3
11 -3 17 -9 15 -14z"/>
<path d="M2738 1538 c-16 -5 -28 -13 -28 -18 0 -5 14 -2 30 6 17 9 30 17 30
20 0 2 -1 4 -2 3 -2 0 -15 -5 -30 -11z"/>
<path d="M2235 1530 c-3 -5 -1 -10 4 -10 6 0 11 5 11 10 0 6 -2 10 -4 10 -3 0
-8 -4 -11 -10z"/>
<path d="M2591 1521 c-11 -7 -11 -9 0 -13 8 -3 11 -9 6 -13 -4 -5 -13 -3 -19
3 -7 7 -16 12 -21 12 -5 0 -2 -7 7 -15 20 -20 33 -19 46 4 11 22 1 34 -19 22z"/>
<path d="M1595 1060 c3 -5 1 -10 -5 -10 -6 0 -8 -5 -4 -11 4 -8 9 -7 15 2 12
19 11 29 -2 29 -5 0 -7 -4 -4 -10z"/>
<path d="M4168 1039 c-24 -13 -23 -28 1 -26 11 1 22 9 24 19 6 20 0 22 -25 7z"/>
<path d="M4220 1026 c0 -2 9 -6 20 -9 11 -3 18 -1 14 4 -5 9 -34 13 -34 5z"/>
<path d="M4300 991 c0 -6 7 -11 15 -11 9 0 19 -10 24 -22 6 -16 9 -18 13 -6 4
9 -4 21 -23 32 -16 10 -29 12 -29 7z"/>
<path d="M1701 981 c-8 -5 -9 -11 -3 -15 5 -3 15 1 22 9 14 16 3 20 -19 6z"/>
<path d="M4282 938 c5 -32 5 -33 -25 -14 -35 22 -84 28 -91 11 -3 -8 -12 -15
-20 -15 -18 0 -36 -30 -36 -60 0 -12 -4 -18 -10 -15 -5 3 -10 1 -10 -4 0 -10
14 -15 33 -12 4 1 10 -6 13 -14 8 -19 26 -20 22 -1 -2 8 6 22 17 31 17 14 17
16 3 11 -23 -7 -23 3 -1 34 16 24 16 24 0 11 -15 -12 -17 -12 -11 2 7 20 37
32 42 17 3 -8 8 -7 19 1 11 10 13 10 11 0 -2 -7 6 -18 17 -24 11 -7 22 -14 25
-17 3 -3 11 -5 18 -6 35 -3 40 -5 38 -21 0 -10 8 -19 19 -21 16 -3 18 -1 8 9
-18 19 -16 42 3 35 8 -3 12 -2 9 3 -3 5 0 11 7 14 7 2 4 3 -7 1 -12 -2 -26 5
-33 17 -7 11 -19 18 -27 15 -7 -2 -16 2 -19 10 -3 9 -1 12 4 9 6 -3 10 -1 10
5 0 6 5 8 12 4 6 -4 8 -3 4 4 -3 6 -16 10 -27 9 -17 -1 -20 -7 -17 -29z m-126
-78 c0 -20 -7 -25 -19 -14 -7 7 2 34 12 34 4 0 7 -9 7 -20z"/>
<path d="M4395 920 c28 -12 37 -12 30 0 -3 6 -16 10 -28 9 -21 0 -21 -1 -2 -9z"/>
<path d="M4462 883 c6 -7 22 -13 37 -13 15 0 33 -6 40 -12 10 -11 11 -10 6 4
-7 18 -36 32 -72 33 -17 1 -20 -2 -11 -12z"/>
<path d="M4384 863 c-16 -12 -16 -13 -1 -13 9 0 17 6 17 13 0 7 3 8 8 2 11
-15 32 -17 32 -2 0 7 -9 13 -19 13 -11 0 -28 -6 -37 -13z"/>
<path d="M4505 850 c3 -5 11 -10 16 -10 6 0 7 5 4 10 -3 6 -11 10 -16 10 -6 0
-7 -4 -4 -10z"/>
<path d="M1819 832 c14 -27 38 -45 45 -34 7 11 -27 52 -43 52 -8 0 -9 -5 -2
-18z"/>
<path d="M4578 831 c12 -12 27 -19 32 -16 14 9 12 27 -2 22 -7 -2 -22 0 -33 6
-18 8 -17 7 3 -12z"/>
<path d="M4634 825 c3 -9 0 -15 -9 -15 -7 0 -17 -5 -21 -12 -4 -7 -3 -8 4 -4
12 7 17 -6 6 -17 -11 -11 -33 4 -27 19 6 16 -22 20 -32 4 -4 -6 -11 -7 -17 -4
-7 4 -8 2 -4 -5 6 -9 11 -9 22 0 14 11 19 2 15 -24 -1 -4 4 -7 11 -5 20 4 59
-22 52 -34 -4 -6 -3 -8 4 -4 5 3 13 0 15 -6 4 -10 6 -9 6 1 1 8 -7 20 -16 28
-17 14 -17 14 0 9 13 -4 16 -2 10 7 -11 17 -10 41 2 49 6 5 5 8 -3 8 -7 0 -10
5 -7 10 3 6 1 10 -5 10 -7 0 -10 -7 -6 -15z"/>
<path d="M4325 811 c4 -12 0 -21 -11 -25 -14 -5 -15 -4 -4 9 7 8 9 15 4 15 -5
0 -17 -14 -26 -30 -16 -27 -16 -30 -1 -39 19 -10 48 12 38 29 -4 6 6 10 22 10
25 1 26 2 11 14 -10 7 -18 18 -18 25 0 6 -5 11 -11 11 -6 0 -8 -8 -4 -19z"/>
<path d="M4375 820 c-7 -12 2 -30 16 -30 12 0 12 27 0 35 -5 3 -12 1 -16 -5z"/>
<path d="M4440 820 c0 -5 5 -10 11 -10 5 0 7 5 4 10 -3 6 -8 10 -11 10 -2 0
-4 -4 -4 -10z"/>
<path d="M4510 812 c-19 -21 -22 -45 -7 -54 17 -11 37 -10 37 2 0 6 -7 10 -15
10 -18 0 -18 5 -4 32 14 25 8 31 -11 10z"/>
<path d="M5150 810 c0 -5 5 -10 10 -10 6 0 10 5 10 10 0 6 -4 10 -10 10 -5 0
-10 -4 -10 -10z"/>
<path d="M5018 795 c-2 -3 -20 -7 -39 -9 -22 -3 -33 -9 -31 -17 1 -9 -3 -7
-12 4 -12 15 -15 16 -26 2 -11 -13 -10 -14 4 -9 12 5 15 2 9 -11 -5 -15 -3
-17 18 -11 41 12 69 14 75 5 7 -12 24 -11 24 1 0 6 -8 10 -17 10 -15 1 -14 4
6 20 15 13 18 20 9 20 -8 0 -17 -2 -20 -5z"/>
<path d="M4377 774 c-7 -7 42 -54 56 -54 4 0 -2 14 -15 30 -22 31 -30 35 -41
24z"/>
<path d="M4340 754 c0 -8 5 -12 10 -9 6 3 10 10 10 16 0 5 -4 9 -10 9 -5 0
-10 -7 -10 -16z"/>
<path d="M4240 744 c0 -12 35 -33 55 -34 16 0 17 2 5 9 -8 6 -18 7 -22 5 -5
-3 -11 2 -14 10 -6 16 -24 23 -24 10z"/>
<path d="M4932 712 c-8 -13 -12 -29 -9 -35 3 -8 -10 -13 -34 -15 -32 -2 -39 1
-39 15 -1 17 -1 17 -11 1 -5 -10 -16 -18 -23 -18 -8 0 -19 -6 -25 -13 -13 -17
-72 -20 -103 -7 -20 9 -19 10 10 7 18 -2 35 0 38 5 5 7 -18 12 -38 9 -5 0 -8
10 -8 24 0 19 5 25 23 26 12 0 16 3 9 6 -20 8 -66 -18 -50 -28 9 -6 8 -12 -5
-27 -23 -26 -22 -29 18 -36 20 -4 35 -13 35 -21 0 -21 -19 -29 -26 -11 -3 9
-17 16 -30 16 -27 0 -30 -9 -11 -29 10 -11 9 -12 -3 -6 -9 5 -12 4 -7 -1 5 -5
28 -9 52 -10 32 -1 42 3 38 13 -4 9 0 11 13 6 18 -6 18 -6 1 14 -16 18 -16 21
-2 27 10 3 14 2 10 -5 -10 -15 14 -39 39 -40 15 0 12 -4 -14 -14 -40 -16 -40
-16 20 -20 25 -1 37 0 28 4 -15 5 -13 8 12 19 17 8 30 18 30 23 0 6 -6 7 -12
3 -10 -6 -10 -4 0 7 18 20 15 39 -8 39 -11 0 -20 -7 -20 -15 0 -13 -3 -13 -20
-3 -25 16 -19 21 30 25 26 3 40 0 40 -8 0 -9 4 -8 15 1 8 6 24 9 37 5 16 -4
19 -3 10 3 -17 11 -17 22 -2 32 6 4 10 18 8 31 l-3 24 -13 -23z m-124 -104
c-3 -7 -13 -15 -23 -16 -15 -4 -16 -2 -4 12 17 19 32 21 27 4z m-113 -36 c-3
-3 -11 0 -18 7 -9 10 -8 11 6 5 10 -3 15 -9 12 -12z"/>
<path d="M4450 711 c0 -5 5 -13 10 -16 6 -3 10 -2 10 4 0 5 -4 13 -10 16 -5 3
-10 2 -10 -4z"/>
<path d="M4798 701 c-6 -10 -16 -18 -22 -17 -6 2 -8 1 -3 -1 4 -3 4 -10 1 -15
-5 -7 -2 -8 7 -2 8 5 21 7 29 6 10 -2 16 6 18 23 2 30 -13 33 -30 6z"/>
<path d="M4715 691 c-3 -5 -2 -12 3 -15 5 -3 9 1 9 9 0 17 -3 19 -12 6z"/>
<path d="M4980 690 c-9 -6 -10 -10 -3 -10 6 0 15 5 18 10 8 12 4 12 -15 0z"/>
<path d="M5150 690 c0 -5 5 -10 11 -10 5 0 7 5 4 10 -3 6 -8 10 -11 10 -2 0
-4 -4 -4 -10z"/>
<path d="M4455 670 c3 -5 11 -10 16 -10 6 0 7 5 4 10 -3 6 -11 10 -16 10 -6 0
-7 -4 -4 -10z"/>
<path d="M5105 670 c-11 -18 6 -30 39 -27 37 2 38 21 3 31 -30 8 -35 7 -42 -4z"/>
<path d="M4377 649 c7 -7 15 -10 18 -7 3 3 -2 9 -12 12 -14 6 -15 5 -6 -5z"/>
<path d="M4460 632 c0 -9 3 -12 7 -9 3 4 12 -1 19 -11 10 -14 15 -15 26 -4 11
11 10 12 -7 7 l-20 -7 20 18 c17 14 17 16 3 11 -10 -4 -18 -3 -18 2 0 4 -7 8
-15 8 -8 0 -15 -7 -15 -15z"/>
<path d="M4605 620 c3 -5 10 -10 16 -10 5 0 9 5 9 10 0 6 -7 10 -16 10 -8 0
-12 -4 -9 -10z"/>
<path d="M5093 615 c0 -8 4 -16 9 -16 22 -5 28 -3 28 6 0 6 -3 10 -7 10 -5 0
-13 3 -19 7 -6 4 -11 1 -11 -7z"/>
<path d="M5216 589 c3 -5 12 -9 21 -9 19 0 9 13 -12 16 -8 1 -13 -2 -9 -7z"/>
<path d="M2000 581 c0 -6 4 -13 10 -16 6 -3 7 1 4 9 -7 18 -14 21 -14 7z"/>
<path d="M4595 580 c-3 -5 -1 -10 4 -10 6 0 11 5 11 10 0 6 -2 10 -4 10 -3 0
-8 -4 -11 -10z"/>
<path d="M5100 564 c0 -12 4 -12 20 -4 11 6 20 12 20 13 0 2 -9 3 -20 4 -12 1
-20 -4 -20 -13z"/>
<path d="M5145 560 c-3 -5 1 -10 9 -10 9 0 16 5 16 10 0 6 -4 10 -9 10 -6 0
-13 -4 -16 -10z"/>
</g>
</svg>
