<?xml version="1.0" standalone="no"?>
<!DOCTYPE svg PUBLIC "-//W3C//DTD SVG 20010904//EN"
 "http://www.w3.org/TR/2001/REC-SVG-20010904/DTD/svg10.dtd">
<svg version="1.0" xmlns="http://www.w3.org/2000/svg"
 width="669.000000pt" height="373.000000pt" viewBox="0 0 669.000000 373.000000"
 preserveAspectRatio="xMidYMid meet">

<g transform="translate(0.000000,373.000000) scale(0.100000,-0.100000)"
fill="#000000" stroke="none">
<path d="M4611 3196 c-13 -15 -9 -50 14 -146 8 -30 32 -131 54 -225 22 -93 53
-226 70 -295 65 -273 75 -330 64 -341 -33 -33 -505 -37 -643 -5 -270 62 -594
211 -935 428 -487 310 -813 436 -1197 463 -223 15 -493 -46 -733 -166 -149
-75 -227 -130 -328 -233 -192 -195 -292 -365 -378 -642 -5 -17 -14 -90 -19
-163 -25 -320 48 -616 207 -839 56 -78 154 -184 212 -228 40 -31 46 -33 61
-19 9 8 23 15 31 14 8 0 4 -4 -8 -9 -13 -5 -23 -15 -23 -22 0 -9 3 -9 11 -1 6
6 19 8 30 6 16 -4 17 -8 8 -20 -10 -11 -14 -11 -20 -1 -7 10 -9 10 -9 1 0 -7
14 -20 31 -29 17 -8 28 -11 25 -5 -4 6 -2 11 3 11 6 0 11 -8 11 -18 0 -11 21
-27 62 -46 35 -17 67 -29 71 -28 4 1 15 -4 23 -13 16 -16 35 -20 33 -8 -5 29
3 33 21 12 10 -13 19 -19 20 -12 0 6 -6 14 -12 17 -7 3 0 4 15 2 21 -3 27 0
23 11 -3 8 -6 20 -6 26 0 7 -5 4 -11 -5 -12 -22 -33 -24 -26 -4 4 11 1 13 -11
9 -11 -3 -9 1 6 11 27 21 28 31 2 63 -14 17 -20 21 -20 10 0 -8 -8 -18 -17
-22 -17 -7 -16 -8 2 -15 19 -8 19 -9 -2 -9 -24 -1 -33 24 -12 31 6 2 12 19 13
39 1 19 5 39 9 45 9 16 54 23 66 11 7 -7 16 -6 27 4 15 12 17 12 9 0 -6 -11
-4 -13 8 -8 9 3 18 0 21 -9 3 -8 13 -14 22 -14 12 0 15 7 12 25 -3 14 -5 25
-4 25 0 0 41 -11 91 -24 115 -30 287 -29 425 4 74 17 269 103 301 133 17 15
33 27 37 27 4 1 25 19 47 40 22 22 45 40 52 40 23 0 103 106 148 195 25 50 45
86 46 80 0 -5 2 -26 5 -45 2 -22 1 -30 -5 -21 -6 9 -11 10 -15 2 -4 -6 -5 -11
-2 -11 3 0 -3 -9 -14 -20 -20 -20 -30 -39 -45 -90 l-7 -25 23 24 c21 23 23 23
29 5 5 -12 1 -23 -9 -30 -13 -10 -13 -14 -2 -28 8 -10 21 -14 32 -11 11 4 19
3 19 0 0 -13 -37 -54 -43 -48 -11 10 -40 -64 -33 -83 5 -14 9 -15 15 -5 7 10
10 9 14 -3 4 -9 12 -16 18 -16 8 0 8 4 -1 15 -13 15 -13 15 32 19 6 1 12 -7
14 -17 1 -9 -1 -17 -6 -17 -4 0 -11 -16 -14 -36 -5 -23 -14 -38 -28 -43 -14
-5 -17 -10 -10 -15 11 -6 64 45 151 146 39 45 130 234 166 348 40 123 45 251
14 355 -55 186 -161 279 -417 365 -139 46 -295 64 -357 40 -41 -16 -27 -40 45
-76 146 -72 239 -233 228 -395 -13 -179 -178 -363 -394 -441 -81 -29 -253 -36
-347 -14 -139 33 -252 111 -330 229 -53 79 -78 150 -97 274 -13 76 -12 90 8
184 40 183 128 315 276 414 238 158 444 181 741 85 166 -55 268 -113 755 -435
163 -108 200 -130 200 -119 0 3 7 1 15 -6 8 -7 15 -9 14 -4 0 5 -19 23 -41 39
-23 17 -43 37 -46 45 -3 13 -2 13 7 0 8 -11 11 -11 11 -2 0 7 -6 15 -14 18
-10 4 -12 13 -6 33 4 15 3 35 -2 44 -17 31 6 17 51 -30 25 -27 39 -40 32 -31
-15 21 -7 38 19 38 13 0 17 5 14 14 -3 8 -1 17 5 21 6 3 9 0 5 -8 -3 -8 2 -17
10 -20 19 -8 21 -33 4 -40 -10 -4 -10 -6 0 -6 7 -1 10 -6 7 -11 -4 -6 -1 -17
5 -25 8 -9 8 -15 2 -15 -6 0 -19 -3 -29 -6 -11 -4 -14 -3 -7 3 6 4 9 16 5 25
-5 15 -8 15 -25 2 -20 -14 -20 -14 0 -29 23 -18 48 -19 73 -3 18 11 18 13 3
24 -13 9 -14 15 -4 26 6 8 9 18 5 21 -3 4 5 6 20 5 14 -1 24 -5 21 -9 -2 -4 3
-12 11 -19 13 -11 14 -10 10 3 -4 8 -1 18 6 23 8 5 10 3 4 -7 -6 -11 -5 -11 5
-2 7 6 18 9 25 7 7 -3 16 -1 20 5 3 7 -3 11 -15 11 -14 0 -19 4 -14 13 5 8 2
7 -9 -2 -15 -12 -20 -12 -33 5 -9 10 -12 13 -8 5 4 -9 2 -12 -7 -9 -8 3 -16
13 -18 23 -2 13 1 16 13 12 9 -4 15 -1 13 6 -1 7 4 11 11 9 18 -3 15 11 -8 31
-22 19 -35 22 -25 8 3 -5 1 -13 -5 -16 -6 -4 -10 -3 -9 2 3 13 -12 43 -23 43
-5 0 -6 -5 -2 -12 5 -7 3 -8 -5 -4 -7 5 -10 10 -7 14 6 5 -24 31 -37 32 -5 0
-5 -5 -1 -12 4 -7 3 -8 -4 -4 -7 4 -12 1 -12 -8 0 -8 5 -18 10 -21 6 -3 10
-11 10 -16 0 -6 -5 -7 -12 -3 -7 5 -8 3 -2 -7 14 -23 13 -34 -7 -60 -15 -20
-19 -21 -19 -6 0 9 4 17 8 17 11 0 12 39 1 45 -5 4 -7 10 -4 15 3 5 -4 7 -15
5 -11 -2 -20 0 -20 6 0 5 -8 9 -17 9 -15 0 -15 -1 2 -14 12 -9 16 -19 11 -32
-7 -17 -9 -16 -24 11 -9 17 -17 35 -18 42 -3 15 28 27 36 13 4 -7 13 -3 24 9
22 24 13 43 -19 37 -17 -3 -22 -1 -19 9 7 18 -31 29 -56 15 -19 -10 -22 -8
-19 18 0 4 7 6 16 4 8 -2 12 1 8 7 -3 6 -19 11 -36 11 -19 0 -29 5 -29 15 0 8
-22 29 -50 46 -27 17 -50 33 -50 36 0 9 46 -10 76 -32 16 -13 91 -58 165 -100
74 -43 155 -92 181 -110 42 -31 230 -125 248 -125 4 0 39 -14 76 -31 117 -53
132 -59 143 -59 15 0 125 -53 129 -63 7 -14 42 -29 42 -17 0 5 -8 10 -17 10
-9 0 -14 3 -10 6 5 5 184 -22 212 -32 7 -3 16 0 20 5 3 6 10 9 14 7 4 -3 66
-8 137 -11 71 -4 146 -11 166 -16 42 -11 91 -2 81 14 -3 5 -1 7 4 4 6 -4 92
-9 192 -11 132 -4 190 -9 213 -20 18 -8 62 -22 98 -30 96 -22 128 -35 110 -46
-20 -13 -33 -12 -25 0 3 5 -2 11 -12 12 -33 2 -38 3 -50 11 -6 4 -33 10 -58
14 -38 5 -49 3 -56 -10 -11 -18 -64 -47 -89 -47 -9 0 -22 6 -29 12 -8 7 -11 9
-9 3 10 -17 -16 -30 -61 -31 -28 -1 -49 -7 -56 -17 -9 -13 -14 -14 -25 -4 -9
8 -11 8 -6 0 4 -7 -5 -14 -24 -18 -17 -4 -28 -11 -24 -16 3 -5 -3 -9 -13 -9
-10 0 -27 -6 -38 -14 -22 -15 -25 -16 -55 -16 -11 0 -19 -3 -19 -7 1 -5 1 -17
0 -28 -1 -14 -4 -16 -9 -8 -6 10 -12 10 -28 -2 -17 -13 -6 -14 109 -15 97 0
127 -3 127 -13 0 -7 -27 -92 -59 -188 -33 -95 -81 -246 -107 -334 -84 -286
-96 -353 -73 -397 11 -20 11 -19 40 8 16 15 40 50 55 78 14 28 35 60 47 71 12
11 30 36 40 55 25 52 44 73 60 67 14 -5 57 30 57 46 0 15 -24 6 -43 -16 l-19
-22 7 25 c13 43 68 153 100 201 28 43 53 80 48 70 -2 -2 5 -10 15 -18 16 -12
15 -13 -3 -6 -19 7 -20 6 -2 -20 16 -25 16 -28 2 -33 -13 -6 -12 -9 7 -19 19
-10 26 -9 40 3 17 14 17 16 0 29 -15 13 -15 13 5 4 14 -7 24 -8 28 -1 3 5 0
10 -7 10 -10 0 -9 3 2 10 12 7 12 10 -4 16 -18 7 -17 8 5 17 13 6 27 9 32 9 4
-1 7 3 7 9 0 5 8 9 18 7 9 -1 23 1 30 6 11 6 10 10 -3 19 -13 10 -10 12 17 14
18 2 37 9 43 16 5 7 19 16 29 20 10 4 16 10 13 14 -10 10 13 33 34 33 10 0 21
5 25 12 5 7 3 8 -6 3 -8 -5 -11 -4 -6 3 3 6 19 13 35 17 16 3 41 17 55 30 14
13 26 22 26 20 0 -3 9 3 19 12 11 9 17 21 14 26 -4 6 0 8 10 4 10 -4 23 2 34
17 10 12 41 35 68 50 28 15 58 36 68 48 9 11 17 17 17 13 0 -4 11 0 25 9 14 9
25 12 25 7 0 -5 -7 -12 -16 -15 -8 -3 -13 -10 -9 -15 3 -5 0 -13 -6 -17 -8 -4
-9 -3 -5 4 12 19 -5 14 -56 -19 -26 -17 -45 -35 -42 -40 3 -5 -1 -7 -8 -4 -7
3 -24 -5 -38 -18 -14 -13 -38 -32 -53 -41 -15 -10 -24 -23 -20 -29 3 -6 1 -7
-6 -3 -6 4 -14 0 -17 -8 -3 -9 -10 -14 -14 -11 -5 3 -16 -5 -24 -17 -9 -12
-16 -19 -16 -14 0 9 -93 -63 -98 -76 -2 -5 -8 -8 -14 -8 -15 0 -38 -27 -30
-35 4 -5 2 -5 -4 -2 -11 7 -29 -19 -25 -36 1 -5 -3 -6 -9 -2 -5 3 -10 1 -10
-6 0 -7 -3 -9 -7 -6 -3 4 -12 2 -20 -4 -11 -10 -11 -15 -1 -28 12 -14 11 -14
-4 -2 -10 7 -18 12 -19 10 0 -2 -2 -11 -4 -20 -4 -20 -48 -65 -78 -80 -12 -6
-4 6 18 25 22 20 34 36 28 36 -7 0 -31 -23 -55 -50 -24 -28 -51 -53 -60 -56
-10 -3 -18 -15 -18 -26 0 -12 -3 -18 -7 -15 -3 4 -12 2 -19 -4 -7 -6 -14 -6
-18 0 -3 5 -15 7 -26 4 -11 -3 -18 -9 -15 -13 3 -5 14 -6 25 -3 11 3 20 2 20
-2 0 -8 -60 -85 -110 -140 -20 -22 -49 -58 -65 -80 l-28 -40 45 45 c24 25 77
76 116 113 40 38 72 72 72 75 0 10 146 149 164 155 9 4 16 11 16 17 0 5 7 10
16 10 8 0 20 13 25 30 6 16 14 28 18 27 4 -1 22 13 40 31 18 18 46 39 62 47
15 8 32 21 36 28 4 7 27 25 51 40 25 16 40 32 36 39 -4 6 -3 8 4 4 5 -3 30 9
54 26 23 18 55 39 70 47 15 8 24 19 21 25 -3 6 -3 8 1 4 4 -3 42 15 84 41 117
72 256 164 263 174 3 5 10 9 15 9 19 -1 123 61 118 69 -3 5 1 6 9 4 11 -5 58
23 231 137 44 30 57 48 46 68 -14 27 -47 47 -210 132 -320 166 -623 355 -775
484 -177 151 -457 441 -624 647 -63 78 -79 88 -100 63z m-2348 -537 c56 -11
107 -25 112 -31 7 -7 4 -8 -10 -5 -38 11 -170 39 -212 44 -48 6 -195 -6 -189
-15 2 -4 -35 -8 -83 -9 -47 -2 -106 -7 -131 -12 -25 -6 -78 -15 -117 -21 -53
-9 -73 -16 -73 -27 0 -9 6 -12 19 -8 10 3 29 1 42 -4 13 -5 17 -10 9 -11 -13
0 -13 -1 0 -10 13 -9 13 -10 0 -11 -8 0 -23 -2 -32 -4 -10 -2 -18 1 -18 7 0 6
6 8 13 5 8 -3 14 1 14 9 0 18 -4 18 -33 -5 l-23 -18 22 -11 c12 -6 16 -11 9
-11 -7 -1 -10 -6 -6 -13 4 -6 3 -8 -4 -5 -15 10 -43 -3 -35 -16 3 -6 1 -7 -5
-3 -6 4 -23 0 -36 -9 -25 -17 -52 -12 -41 6 4 5 1 9 -4 9 -6 0 -11 -4 -11 -8
0 -5 -7 -9 -15 -9 -8 0 -12 4 -9 9 8 12 -10 10 -24 -4 -14 -14 -27 -4 -17 12
4 7 19 10 36 6 15 -3 31 -1 34 4 3 6 11 10 16 10 6 0 7 -5 3 -11 -4 -7 -1 -10
7 -7 8 3 13 12 11 19 -3 10 0 11 8 3 12 -12 57 -7 65 7 3 4 -8 4 -25 -1 -18
-5 -30 -5 -30 1 0 5 5 9 10 9 6 0 10 5 10 10 0 6 -13 4 -29 -5 -17 -8 -32 -11
-35 -6 -5 8 15 18 59 27 19 4 35 21 35 37 0 4 -9 3 -19 -3 -37 -19 -71 -29
-71 -21 0 16 102 52 193 68 335 57 457 64 610 32z m-106 -13 c4 -4 -1 -4 -11
0 -14 5 -17 3 -14 -7 3 -8 16 -14 29 -15 59 -2 83 -6 71 -11 -6 -2 -10 -9 -7
-13 3 -5 12 -7 19 -4 8 3 17 1 20 -4 3 -5 -2 -9 -12 -8 -11 1 -16 -5 -14 -18
2 -12 -1 -16 -10 -10 -7 4 -5 -1 4 -12 10 -11 14 -25 9 -32 -6 -10 -10 -10
-21 2 -13 16 -35 12 -25 -5 4 -5 1 -9 -4 -9 -6 0 -11 4 -11 9 0 5 -12 8 -26 5
-14 -3 -42 0 -62 6 -22 6 -38 6 -40 1 -4 -13 -42 20 -42 36 0 7 8 13 18 14 10
0 12 3 5 6 -7 2 -13 9 -13 14 0 6 5 7 10 4 6 -3 10 -1 10 5 0 8 9 10 26 6 17
-5 23 -3 19 4 -3 5 -1 10 4 10 18 0 12 28 -6 33 -10 2 1 3 24 2 23 0 46 -4 50
-9z m183 -31 c11 4 28 -4 47 -20 15 -15 23 -24 16 -21 -6 4 -14 2 -18 -4 -3
-5 2 -10 12 -10 11 0 25 -6 32 -12 11 -11 13 -10 8 5 -7 19 -6 20 16 11 12 -4
9 -12 -16 -33 -44 -40 -66 -31 -63 24 2 34 -1 42 -11 34 -6 -6 -17 -8 -23 -4
-6 4 -17 2 -24 -4 -10 -9 -15 -8 -19 3 -4 11 -1 13 10 9 11 -4 14 -3 9 6 -4 6
-15 11 -24 9 -19 -3 -42 9 -42 22 0 5 16 2 36 -6 19 -8 44 -12 54 -9z m-486 7
c2 -4 -4 -8 -15 -8 -10 0 -19 4 -19 8 0 4 6 8 14 8 8 0 17 -4 20 -8z m93 -5
c7 0 10 -4 7 -9 -3 -4 -12 -8 -20 -8 -8 0 -14 -9 -14 -21 0 -11 3 -18 8 -16 4
3 16 1 27 -4 14 -5 8 -7 -20 -5 -28 3 -39 8 -37 17 3 11 1 11 -9 2 -7 -7 -20
-9 -33 -4 -11 5 -29 7 -39 5 -9 -1 -15 2 -11 7 3 5 -2 9 -11 9 -10 0 -13 -5
-9 -12 4 -7 3 -10 -1 -5 -12 10 -14 47 -3 47 4 0 8 -4 8 -10 0 -5 5 -10 11
-10 5 0 7 5 3 12 -5 7 -3 8 7 2 23 -14 41 -14 63 2 12 8 29 11 41 7 11 -3 25
-6 32 -6z m488 -7 c7 -12 -2 -12 -30 0 -19 8 -19 9 2 9 12 1 25 -3 28 -9z
m-745 -8 c0 -4 -12 -8 -27 -9 -24 -1 -25 -1 -8 7 26 11 35 12 35 2z m274 -16
c-3 -8 -12 -12 -21 -9 -12 5 -12 7 -1 14 20 13 28 11 22 -5z m598 -32 c57 -26
108 -50 113 -54 6 -5 48 -28 95 -53 97 -50 196 -112 205 -127 6 -9 -56 25
-117 64 -69 44 -212 118 -375 192 -29 13 -42 24 -29 24 2 0 51 -21 108 -46z
m-812 22 c0 -2 -8 -10 -17 -17 -16 -13 -17 -12 -4 4 13 16 21 21 21 13z m-300
-21 c0 -3 -26 -18 -58 -34 -31 -16 -68 -40 -82 -53 -14 -13 -38 -30 -54 -38
-16 -8 -53 -41 -82 -74 -30 -33 -57 -57 -60 -53 -10 10 97 116 161 161 33 22
85 53 115 68 62 31 60 30 60 23z m868 -24 c10 -6 10 -10 -2 -20 -10 -8 -16 -9
-21 -1 -3 5 -11 10 -17 10 -6 0 -6 -6 2 -15 7 -9 10 -18 7 -21 -3 -3 -10 3
-16 15 -9 16 -8 22 6 30 22 13 25 13 41 2z m256 -23 c20 -29 21 -44 1 -24 -8
8 -15 19 -15 24 0 6 -6 13 -12 15 -10 4 -10 6 -1 6 6 1 19 -9 27 -21z m-1134
2 c0 -5 -5 -10 -11 -10 -5 0 -7 5 -4 10 3 6 8 10 11 10 2 0 4 -4 4 -10z m191
-13 c-10 -9 -11 -8 -5 6 3 10 9 15 12 12 3 -3 0 -11 -7 -18z m399 13 c0 -5 -2
-10 -4 -10 -3 0 -8 5 -11 10 -3 6 -1 10 4 10 6 0 11 -4 11 -10z m311 -22 c11
-21 11 -22 -4 -9 -10 7 -17 17 -17 22 0 15 9 10 21 -13z m103 9 c-2 -7 -15
-13 -27 -14 -21 -2 -21 -1 3 12 31 18 30 18 24 2z m-864 -47 c-8 -6 -23 -10
-32 -10 -10 0 -18 -5 -18 -11 0 -6 -7 -8 -16 -5 -8 3 -13 2 -10 -3 3 -4 -13
-23 -36 -41 -23 -19 -38 -28 -33 -20 6 10 1 12 -28 7 -22 -3 -37 -2 -37 4 0 6
5 7 10 4 6 -3 10 1 10 10 0 9 -4 13 -10 10 -5 -3 -10 -1 -10 4 0 6 3 12 8 12
38 7 52 5 52 -8 0 -9 10 -3 26 14 l25 28 -6 -25 c-6 -24 -5 -24 10 3 9 15 20
25 25 22 5 -3 11 -1 14 4 3 5 15 7 25 4 10 -3 22 0 26 7 4 6 10 9 13 5 4 -3 0
-10 -8 -15z m-303 -42 c-3 -8 -6 -5 -6 6 -1 11 2 17 5 13 3 -3 4 -12 1 -19z
m-49 -48 c-12 -16 -26 -30 -30 -30 -5 0 -6 -5 -3 -10 4 -7 12 -7 25 0 25 13
27 13 34 -6 3 -8 2 -13 -2 -10 -4 3 -14 -4 -20 -15 -12 -18 -11 -19 7 -9 17 9
20 8 15 -5 -4 -8 -12 -15 -19 -15 -8 0 -13 -9 -12 -19 0 -11 4 -18 8 -15 4 2
9 -6 12 -17 4 -16 2 -19 -11 -15 -13 5 -12 2 3 -10 14 -12 15 -15 4 -11 -9 3
-21 1 -27 -5 -6 -6 -12 -6 -17 3 -5 8 -4 10 3 5 7 -4 12 -3 12 3 0 5 -5 13
-10 16 -6 4 -8 11 -5 16 6 9 -9 14 -30 9 -5 -1 -7 2 -3 6 4 4 4 12 -1 18 -4 6
-11 24 -15 39 -6 26 -5 27 15 16 20 -10 21 -9 16 12 -5 19 1 29 31 51 47 34
47 34 20 -2z m96 -28 c3 -5 -1 -9 -9 -9 -8 0 -12 4 -9 9 3 4 7 8 9 8 2 0 6 -4
9 -8z m-4 -37 c-15 -18 -36 -20 -46 -4 -4 7 0 9 14 5 11 -4 23 -2 27 4 3 5 9
10 12 10 3 0 0 -7 -7 -15z m-210 -9 c0 -3 -4 -8 -10 -11 -5 -3 -10 -1 -10 4 0
6 5 11 10 11 6 0 10 -2 10 -4z m4028 -108 c28 -60 49 -108 47 -108 -7 0 -54
88 -73 136 -11 27 -23 58 -27 69 -20 50 7 1 53 -97z m-3843 74 c-1 -9 -8 -16
-13 -15 -7 2 -9 -4 -5 -15 7 -16 6 -16 -11 1 -9 9 -22 17 -28 17 -6 0 0 8 13
19 27 21 48 18 44 -7z m-250 -57 c-21 -25 -40 -43 -43 -41 -2 3 13 26 33 51
21 25 40 43 43 41 2 -3 -13 -26 -33 -51z m131 -49 c2 -53 1 -56 -15 -42 -10 9
-24 16 -32 16 -11 1 -10 4 3 14 10 7 15 15 12 18 -3 3 -2 18 2 32 11 45 28 23
30 -38z m-59 9 c0 -8 -4 -12 -9 -9 -5 3 -6 10 -3 15 9 13 12 11 12 -6z m2064
-9 c5 3 9 0 9 -7 0 -7 -8 -9 -21 -6 -16 4 -19 2 -15 -10 5 -13 4 -14 -9 -3
-14 11 -13 14 2 26 10 7 20 8 21 3 2 -5 8 -7 13 -3z m-2181 -10 c0 -2 -7 -9
-15 -16 -13 -11 -14 -10 -9 4 5 14 24 23 24 12z m4210 -97 c0 -5 10 -23 22
-39 12 -16 19 -33 15 -36 -4 -4 -10 2 -13 12 -4 10 -12 26 -19 34 -17 21 -27
52 -15 45 6 -3 10 -11 10 -16z m-4263 -24 c-15 -16 -19 -13 -11 9 3 9 10 13
15 10 5 -3 3 -11 -4 -19z m2193 10 c0 -8 -2 -15 -4 -15 -2 0 -6 7 -10 15 -3 8
-1 15 4 15 6 0 10 -7 10 -15z m34 -51 c3 -8 2 -12 -4 -9 -6 3 -10 10 -10 16 0
14 7 11 14 -7z m-2244 -14 c0 -5 -5 -10 -11 -10 -5 0 -7 5 -4 10 3 6 8 10 11
10 2 0 4 -4 4 -10z m4350 -35 c13 -14 19 -25 13 -25 -6 0 -18 11 -27 25 -9 14
-15 25 -13 25 2 0 14 -11 27 -25z m-2785 -15 c3 -6 -1 -7 -9 -4 -18 7 -21 14
-7 14 6 0 13 -4 16 -10z m-1604 -76 c-5 -16 -10 -21 -10 -12 -1 18 10 51 15
45 2 -1 -1 -16 -5 -33z m4406 9 c-3 -3 -11 -2 -17 2 -9 6 -9 10 1 16 14 8 27
-7 16 -18z m803 -129 c0 -8 -19 -13 -24 -6 -3 5 1 9 9 9 8 0 15 -2 15 -3z
m-70 -18 c0 -3 -14 -11 -30 -20 -17 -8 -28 -10 -24 -5 3 6 16 14 28 19 26 11
26 11 26 6z m-71 -40 c-2 -2 -15 -7 -29 -10 l-25 -7 25 15 c21 12 42 14 29 2z
m-69 -36 c-8 -5 -19 -10 -25 -10 -5 0 -3 5 5 10 8 5 20 10 25 10 6 0 3 -5 -5
-10z m-45 -20 c-3 -5 -11 -10 -16 -10 -6 0 -7 5 -4 10 3 6 11 10 16 10 6 0 7
-4 4 -10z m-39 -19 c-4 -5 -1 -11 6 -13 7 -3 5 -7 -6 -11 -10 -4 -15 -3 -11 3
9 15 0 12 -40 -10 -19 -11 -35 -16 -35 -11 0 5 19 18 43 30 48 24 50 25 43 12z
m-359 -7 c-3 -3 -12 -4 -19 -1 -8 3 -5 6 6 6 11 1 17 -2 13 -5z m423 2 c0 -3
-4 -8 -10 -11 -5 -3 -10 -1 -10 4 0 6 5 11 10 11 6 0 10 -2 10 -4z m-1086 -37
c-3 -5 -10 -7 -15 -3 -5 3 -7 10 -3 15 3 5 10 7 15 3 5 -3 7 -10 3 -15z
m-2101 -40 c-8 -29 -13 -23 -13 14 0 22 3 28 9 18 5 -7 6 -22 4 -32z m-3 -49
c0 -5 -2 -10 -4 -10 -3 0 -8 5 -11 10 -3 6 -1 10 4 10 6 0 11 -4 11 -10z
m2486 -42 c-11 -15 -16 -18 -16 -7 0 16 21 42 28 34 2 -2 -3 -14 -12 -27z
m241 26 c-3 -3 -12 -4 -19 -1 -8 3 -5 6 6 6 11 1 17 -2 13 -5z m-2743 -39 c-4
-8 -10 -15 -15 -15 -4 0 -6 7 -3 15 4 8 10 15 15 15 4 0 6 -7 3 -15z m2476
-29 c0 -2 -7 -9 -15 -16 -13 -11 -14 -10 -9 4 5 14 24 23 24 12z m45 -32 c0
-20 -2 -20 -22 -6 -25 16 -24 28 4 28 12 0 18 -8 18 -22z m325 22 c0 -2 -8
-10 -17 -17 -16 -13 -17 -12 -4 4 13 16 21 21 21 13z m-216 -32 c3 -8 0 -13
-7 -11 -7 1 -11 -4 -9 -10 3 -18 -26 -16 -44 1 -19 20 -18 25 9 35 26 10 43 5
51 -15z m-175 -56 c14 9 22 12 18 6 -4 -7 0 -15 9 -18 9 -3 12 -2 8 5 -3 6 4
5 15 -3 21 -12 26 -50 7 -48 -5 1 -13 -5 -18 -14 -8 -14 -11 -14 -36 0 -20 12
-22 12 -9 1 10 -8 15 -21 11 -31 -8 -22 -18 -20 -50 9 -15 14 -21 25 -13 25 9
0 10 3 2 11 -6 6 -9 19 -6 28 4 9 3 13 -1 9 -7 -6 -13 -28 -15 -52 -1 -6 -5
-6 -12 1 -7 7 -3 21 12 47 19 33 23 36 37 22 13 -13 18 -13 41 2z m91 -14 c0
-14 -3 -14 -15 -4 -8 7 -15 14 -15 16 0 2 7 4 15 4 8 0 15 -7 15 -16z m-147
-94 c9 0 19 -5 23 -12 4 -7 3 -8 -4 -4 -7 4 -12 2 -12 -5 0 -16 -31 -38 -47
-32 -22 8 -15 32 7 28 20 -4 20 -3 -2 28 -20 29 -20 30 -2 15 11 -10 28 -18
37 -18z m-62 -13 c-10 -9 -11 -8 -5 6 3 10 9 15 12 12 3 -3 0 -11 -7 -18z
m-3931 -7 c0 -5 -5 -10 -11 -10 -5 0 -7 5 -4 10 3 6 8 10 11 10 2 0 4 -4 4
-10z m1606 -19 c1 -6 0 -7 -2 -2 -3 5 -14 7 -24 4 -11 -3 -20 -1 -20 4 0 14
43 9 46 -6z m-1516 -69 c0 -2 -16 9 -35 24 -19 14 -35 31 -35 36 0 5 16 -5 35
-23 19 -19 35 -35 35 -37z m1590 53 c11 -13 10 -14 -4 -9 -9 3 -16 10 -16 15
0 13 6 11 20 -6z m-140 -85 c0 -5 -4 -10 -10 -10 -5 0 -10 5 -10 10 0 6 5 10
10 10 6 0 10 -4 10 -10z m17 -10 c-1 -11 -5 -20 -9 -20 -10 0 -10 4 -2 24 8
22 13 20 11 -4z m68 10 c-3 -5 -12 -10 -18 -10 -7 0 -6 4 3 10 19 12 23 12 15
0z m-7 -45 c-3 -3 -9 2 -12 12 -6 14 -5 15 5 6 7 -7 10 -15 7 -18z m-1437 -5
c22 -12 26 -35 5 -27 -7 3 -24 -2 -37 -11 -23 -15 -24 -15 -8 4 9 10 14 25 12
32 -6 15 2 15 28 2z m-181 -24 c0 -2 -7 -7 -16 -10 -8 -3 -12 -2 -9 4 6 10 25
14 25 6z m173 -23 c-6 -17 -5 -17 15 0 23 21 27 20 137 -21 79 -29 94 -38 65
-38 -11 0 -20 3 -20 7 0 6 -58 23 -72 20 -5 0 -8 3 -8 8 0 5 -11 11 -25 13
-20 4 -25 1 -25 -14 0 -12 4 -16 12 -12 7 4 8 3 4 -5 -6 -9 -11 -9 -22 0 -12
10 -17 9 -27 -1 -10 -10 -9 -11 3 -5 12 6 12 5 3 -5 -6 -7 -9 -19 -6 -28 4
-10 2 -13 -5 -8 -7 4 -12 16 -12 26 0 14 -5 18 -17 13 -10 -4 -14 -2 -9 5 3 6
2 13 -4 17 -7 4 -7 12 0 26 13 24 22 25 13 2z m-172 -66 c-8 -8 -11 -7 -11 4
0 20 13 34 18 19 3 -7 -1 -17 -7 -23z m316 7 c-3 -3 -12 -4 -19 -1 -8 3 -5 6
6 6 11 1 17 -2 13 -5z m-117 -34 c15 -14 25 -31 23 -37 -3 -9 -11 -5 -24 10
-10 12 -18 16 -19 10 0 -7 5 -13 10 -13 6 0 10 -9 10 -20 0 -12 -7 -20 -17
-20 -15 0 -16 2 -3 10 8 5 12 11 9 15 -3 3 -16 -4 -29 -15 -13 -11 -26 -20
-30 -20 -13 0 -20 29 -8 36 7 4 8 3 4 -4 -4 -7 -2 -12 3 -12 14 0 14 27 1 35
-5 3 -10 12 -10 18 0 7 5 4 11 -5 11 -19 39 -13 39 8 0 8 -9 14 -20 14 -11 0
-20 5 -20 11 0 18 41 5 70 -21z m-142 11 c11 -7 10 -9 -3 -14 -9 -4 -14 -3
-10 2 3 5 -1 12 -7 14 -7 3 -8 6 -3 6 6 0 16 -3 23 -8z m12 -52 c0 -5 4 -8 9
-4 5 3 12 1 15 -4 3 -5 0 -11 -8 -14 -8 -3 -17 1 -20 9 -3 9 -11 12 -17 8 -8
-4 -9 -3 -5 4 9 15 26 16 26 1z m-10 -43 c0 -3 -4 -8 -10 -11 -5 -3 -10 -1
-10 4 0 6 5 11 10 11 6 0 10 -2 10 -4z m63 -13 c-7 -2 -19 -2 -25 0 -7 3 -2 5
12 5 14 0 19 -2 13 -5z m52 -53 c3 -5 1 -10 -4 -10 -6 0 -11 5 -11 10 0 6 2
10 4 10 3 0 8 -4 11 -10z m85 -14 c0 -2 -9 -6 -19 -9 -14 -3 -19 0 -18 13 1
15 5 16 19 9 10 -5 18 -11 18 -13z"/>
<path d="M1485 2480 c-3 -5 -1 -10 4 -10 6 0 11 5 11 10 0 6 -2 10 -4 10 -3 0
-8 -4 -11 -10z"/>
<path d="M2055 2569 c-4 -6 -4 -13 0 -17 4 -4 10 -1 12 6 3 6 10 9 15 6 7 -4
8 -2 4 4 -9 15 -23 15 -31 1z"/>
<path d="M2166 2567 c3 -10 9 -15 12 -12 3 3 0 11 -7 18 -10 9 -11 8 -5 -6z"/>
<path d="M2340 2599 c0 -5 5 -7 10 -4 6 3 10 8 10 11 0 2 -4 4 -10 4 -5 0 -10
-5 -10 -11z"/>
<path d="M2388 2543 c6 -2 18 -2 25 0 6 3 1 5 -13 5 -14 0 -19 -2 -12 -5z"/>
<path d="M2395 2520 c4 -6 11 -8 16 -5 14 9 11 15 -7 15 -8 0 -12 -5 -9 -10z"/>
<path d="M1880 2610 c-12 -8 -11 -10 8 -10 12 0 22 5 22 10 0 13 -11 13 -30 0z"/>
<path d="M1155 2120 c3 -5 8 -10 11 -10 2 0 4 5 4 10 0 6 -5 10 -11 10 -5 0
-7 -4 -4 -10z"/>
<path d="M5248 1323 c6 -2 18 -2 25 0 6 3 1 5 -13 5 -14 0 -19 -2 -12 -5z"/>
<path d="M3270 2120 c0 -5 5 -10 11 -10 5 0 7 5 4 10 -3 6 -8 10 -11 10 -2 0
-4 -4 -4 -10z"/>
<path d="M3245 2090 c-3 -5 -1 -10 4 -10 6 0 11 5 11 10 0 6 -2 10 -4 10 -3 0
-8 -4 -11 -10z"/>
<path d="M3603 1923 c-4 -10 -11 -21 -16 -25 -6 -3 2 -5 16 -5 25 2 40 17 17
17 -5 0 -7 7 -4 15 4 8 3 15 0 15 -4 0 -10 -8 -13 -17z"/>
<path d="M3680 1900 c0 -5 7 -15 15 -23 8 -8 11 -19 7 -23 -4 -5 -1 -4 6 2 7
6 10 18 7 27 -7 17 -35 32 -35 17z"/>
<path d="M3220 1891 c0 -5 5 -13 10 -16 6 -3 10 -2 10 4 0 5 -4 13 -10 16 -5
3 -10 2 -10 -4z"/>
<path d="M3400 1870 c0 -14 25 -18 37 -5 9 10 6 13 -13 13 -13 0 -24 -4 -24
-8z"/>
<path d="M3514 1873 c10 -11 37 -12 30 -2 -3 5 -12 9 -21 9 -9 0 -13 -3 -9 -7z"/>
<path d="M3565 1869 c-8 -12 5 -36 18 -36 7 0 12 10 12 22 0 21 -21 30 -30 14z"/>
<path d="M3730 1866 c0 -9 5 -16 10 -16 6 0 10 4 10 9 0 6 -4 13 -10 16 -5 3
-10 -1 -10 -9z"/>
<path d="M3581 1804 c6 -7 15 -11 20 -8 5 3 6 -1 3 -9 -7 -18 11 -31 32 -23
12 5 11 9 -4 24 -24 24 -69 38 -51 16z"/>
<path d="M3326 1791 c-7 -11 18 -33 27 -24 4 3 7 -1 7 -10 0 -16 1 -16 20 0
12 11 16 21 10 28 -11 13 -57 18 -64 6z m24 -11 c0 -5 -2 -10 -4 -10 -3 0 -8
5 -11 10 -3 6 -1 10 4 10 6 0 11 -4 11 -10z"/>
<path d="M3923 1767 c0 -7 10 -13 21 -13 12 1 20 -5 18 -12 -1 -9 6 -11 25 -6
36 9 36 9 16 25 -11 9 -14 10 -9 2 4 -8 2 -13 -8 -13 -8 0 -16 4 -18 9 -6 15
-45 22 -45 8z"/>
<path d="M3400 1752 c0 -7 -4 -10 -10 -7 -5 3 -10 2 -10 -3 0 -15 76 -41 91
-31 12 7 11 9 -1 10 -8 1 -20 1 -27 0 -6 -1 -19 9 -27 21 -9 12 -16 17 -16 10z"/>
<path d="M3663 1745 c0 -8 4 -15 7 -15 4 0 13 7 20 15 10 12 9 15 -7 15 -11 0
-20 -7 -20 -15z"/>
<path d="M3760 1756 c0 -8 31 -36 41 -36 5 0 0 9 -11 20 -19 19 -30 25 -30 16z"/>
<path d="M3564 1731 c-4 -9 -6 -19 -6 -23 1 -5 -2 -8 -8 -8 -5 0 -10 5 -10 10
0 6 -4 10 -10 10 -5 0 -10 -11 -10 -24 0 -17 11 -30 36 -45 19 -12 38 -21 42
-21 4 0 -1 5 -11 11 -9 6 -15 14 -12 20 3 5 -1 6 -9 3 -9 -3 -16 -2 -16 4 0 5
7 13 16 16 8 3 12 10 9 16 -4 6 1 7 11 3 11 -4 15 -3 10 5 -4 7 2 9 20 6 23
-4 25 -3 15 9 -18 22 -59 27 -67 8z"/>
<path d="M3935 1741 c-3 -5 -1 -12 5 -16 5 -3 10 1 10 9 0 18 -6 21 -15 7z"/>
<path d="M3885 1714 c-9 -15 -12 -23 -6 -20 16 10 13 -10 -4 -28 -8 -8 -15
-21 -15 -28 0 -10 3 -9 10 2 5 8 10 12 10 8 0 -4 10 3 23 15 18 18 20 24 8 33
-8 6 -11 18 -8 28 9 24 2 20 -18 -10z"/>
<path d="M4305 1730 c-16 -7 -17 -9 -3 -9 9 -1 20 4 23 9 7 11 7 11 -20 0z"/>
<path d="M3970 1720 c-12 -7 -10 -9 7 -7 12 0 19 5 17 9 -6 10 -6 10 -24 -2z"/>
<path d="M4183 1723 c-25 -9 -13 -21 21 -20 30 1 32 3 18 14 -18 13 -21 14
-39 6z"/>
<path d="M4307 1710 c-52 -20 -52 -20 -68 -20 -5 0 -7 -4 -4 -10 10 -16 52
-11 59 7 5 12 9 14 18 5 16 -16 29 -15 22 2 -4 10 3 14 27 13 18 -1 34 4 36
11 3 6 0 12 -7 12 -6 0 -8 -4 -5 -10 3 -5 1 -10 -4 -10 -6 0 -11 5 -11 10 0
13 -5 12 -63 -10z"/>
<path d="M4670 1710 c0 -5 5 -10 12 -10 7 0 0 -10 -15 -22 -25 -20 -26 -23
-11 -40 16 -16 15 -18 -6 -26 -14 -5 -19 -11 -12 -16 6 -3 22 6 36 21 21 22
27 25 41 13 13 -11 15 -10 9 4 -5 12 0 16 17 17 l24 0 -24 10 c-17 7 -32 5
-52 -5 -34 -17 -35 -16 -10 13 11 13 17 29 14 37 -6 16 -23 19 -23 4z"/>
<path d="M4730 1710 c-25 -6 -25 -6 5 -12 33 -7 44 -2 29 11 -5 4 -20 5 -34 1z"/>
<path d="M4787 1714 c-3 -3 0 -12 6 -19 10 -11 15 -10 29 2 10 9 18 11 22 4 4
-5 -3 -15 -14 -21 -12 -6 -18 -16 -14 -23 4 -7 -3 -3 -16 8 -13 11 -20 14 -16
8 4 -7 2 -13 -3 -13 -22 0 -10 -16 19 -27 17 -6 28 -8 26 -5 -6 11 13 52 24
52 6 0 9 -4 6 -8 -3 -5 4 -14 14 -22 10 -8 17 -17 14 -22 -3 -4 4 -8 15 -8 23
0 41 22 22 28 -9 3 -9 7 0 18 9 11 8 14 -5 14 -10 0 -14 5 -11 10 3 6 -2 10
-12 11 -16 0 -16 1 2 9 15 6 8 8 -25 7 -25 0 -48 -6 -52 -11 -6 -8 -11 -7 -16
2 -5 7 -11 10 -15 6z m121 -64 c7 -11 10 -20 6 -20 -7 0 -34 27 -34 34 0 13
16 5 28 -14z"/>
<path d="M3600 1690 c-6 -12 -9 -24 -6 -28 3 -3 6 1 6 8 0 9 5 7 15 -6 14 -19
14 -19 15 1 0 11 -4 26 -9 34 -7 11 -11 9 -21 -9z"/>
<path d="M5002 1694 c-7 -8 -8 -14 -3 -14 10 0 25 19 20 25 -2 1 -10 -3 -17
-11z"/>
<path d="M3475 1690 c3 -5 8 -10 11 -10 2 0 4 5 4 10 0 6 -5 10 -11 10 -5 0
-7 -4 -4 -10z"/>
<path d="M4116 1691 c-3 -5 -16 -7 -29 -4 -22 5 -22 5 -2 -10 11 -9 15 -17 8
-17 -7 0 -13 -4 -13 -10 0 -5 7 -7 15 -4 8 4 15 12 15 20 0 7 8 18 18 23 9 6
12 11 5 11 -6 0 -14 -4 -17 -9z"/>
<path d="M4946 1682 c-2 -4 4 -8 15 -8 10 0 19 4 19 8 0 4 -6 8 -14 8 -8 0
-17 -4 -20 -8z"/>
<path d="M3674 1664 c5 -12 2 -15 -10 -10 -14 5 -44 -14 -44 -29 0 -3 16 -3
35 1 28 5 34 3 30 -8 -4 -9 0 -15 10 -15 8 0 15 4 15 9 0 4 7 8 16 8 13 0 14
3 5 14 -9 11 -9 15 1 19 9 4 8 6 -2 6 -9 1 -22 -5 -29 -11 -11 -11 -12 -9 -6
10 5 17 2 22 -10 22 -12 0 -15 -5 -11 -16z"/>
<path d="M5015 1670 c-3 -6 1 -7 9 -4 18 7 21 14 7 14 -6 0 -13 -4 -16 -10z"/>
<path d="M4045 1660 c3 -5 10 -10 16 -10 5 0 9 5 9 10 0 6 -7 10 -16 10 -8 0
-12 -4 -9 -10z"/>
<path d="M4122 1659 c2 -6 8 -10 13 -10 5 0 11 4 13 10 2 6 -4 11 -13 11 -9 0
-15 -5 -13 -11z"/>
<path d="M3793 1645 c0 -8 4 -12 9 -9 4 3 8 9 8 15 0 5 -4 9 -8 9 -5 0 -9 -7
-9 -15z"/>
<path d="M4148 1623 c6 -2 12 -16 12 -29 0 -13 5 -24 10 -24 6 0 10 5 10 11 0
5 6 7 13 3 7 -5 6 0 -3 12 -19 24 -32 34 -45 33 -5 0 -4 -3 3 -6z"/>
<path d="M4562 1621 c-11 -6 -10 -10 4 -15 20 -8 32 0 18 14 -5 5 -15 5 -22 1z"/>
<path d="M4758 1614 c-16 -8 -28 -17 -28 -20 0 -2 9 0 19 6 26 13 34 13 25 -2
-5 -9 -3 -9 9 1 9 7 14 17 11 22 -6 11 -3 11 -36 -7z"/>
<path d="M3854 1614 c-7 -3 -9 -14 -6 -26 3 -14 1 -19 -6 -14 -6 3 -14 1 -17
-5 -4 -5 -14 -8 -24 -5 -9 4 -7 -2 8 -14 26 -23 45 -26 38 -7 -2 6 -10 11 -16
9 -7 -1 -10 2 -7 7 7 11 46 2 46 -11 0 -5 5 -6 10 -3 6 3 10 1 10 -4 0 -6 5
-11 12 -11 6 0 4 7 -5 18 -10 10 -17 26 -17 35 0 9 -6 17 -12 17 -9 0 -8 4 2
10 15 10 4 12 -16 4z"/>
<path d="M4333 1597 c-15 -18 -15 -19 -1 -8 9 7 22 10 27 7 5 -4 12 -2 16 4 3
5 11 10 16 10 6 0 7 -4 4 -10 -3 -5 1 -10 10 -10 30 0 9 25 -23 27 -20 1 -37
-6 -49 -20z"/>
<path d="M3890 1601 c0 -5 5 -13 10 -16 6 -4 8 -11 5 -16 -4 -5 -1 -9 4 -9 16
0 13 19 -4 36 -8 9 -15 11 -15 5z"/>
<path d="M4076 1593 c-6 -14 -5 -15 5 -6 7 7 10 15 7 18 -3 3 -9 -2 -12 -12z"/>
<path d="M4540 1595 c-6 -37 -6 -55 2 -55 4 0 8 7 8 16 0 9 5 12 12 8 6 -4 8
-3 4 4 -3 5 -3 12 1 15 5 2 3 2 -4 1 -6 -2 -14 2 -17 9 -2 7 -5 8 -6 2z"/>
<path d="M4600 1585 c-9 -11 -10 -19 -3 -26 13 -13 35 12 24 29 -6 10 -11 9
-21 -3z"/>
<path d="M4660 1570 c-5 -9 -6 -20 -3 -24 3 -3 -1 -6 -10 -6 -9 0 -18 -4 -21
-9 -3 -4 6 -6 19 -3 14 2 25 9 25 14 0 5 5 6 12 2 6 -4 8 -3 4 4 -3 6 1 15 10
20 14 8 14 10 -5 15 -14 3 -24 -1 -31 -13z"/>
<path d="M4344 1568 c-10 -15 17 -18 48 -4 l33 14 -38 -2 c-22 0 -41 -4 -43
-8z"/>
<path d="M4190 1559 c0 -6 -7 -8 -16 -5 -8 3 -12 2 -9 -4 3 -5 1 -18 -5 -29
-7 -14 -7 -22 0 -26 6 -4 10 -3 9 2 -4 21 2 33 17 33 14 0 14 -2 3 -16 -12
-14 -11 -16 6 -12 11 2 19 10 18 16 -2 8 10 12 33 12 19 0 33 4 30 9 -3 4 -17
6 -31 4 -17 -4 -27 0 -31 11 -7 18 -24 22 -24 5z"/>
<path d="M4025 1544 c13 -10 11 -12 -17 -17 -18 -2 -37 -1 -43 3 -14 10 -45
20 -45 15 0 -2 15 -11 33 -19 39 -18 104 -18 104 1 0 7 -4 13 -9 13 -5 0 -7 4
-4 8 2 4 -4 8 -15 8 -18 0 -19 -2 -4 -12z"/>
<path d="M4290 1550 c8 -5 20 -10 25 -10 6 0 3 5 -5 10 -8 5 -19 10 -25 10 -5
0 -3 -5 5 -10z"/>
<path d="M4328 1533 c-10 -3 -18 -8 -18 -13 0 -5 6 -7 13 -5 6 3 18 -4 25 -15
13 -22 3 -27 -16 -8 -9 9 -18 5 -38 -15 -15 -15 -24 -30 -20 -34 4 -4 11 -1
15 6 6 8 19 12 35 9 15 -3 23 -1 19 5 -3 5 0 7 8 5 8 -3 13 -11 11 -17 -1 -8
6 -11 20 -9 30 4 46 68 17 68 -11 0 -21 -1 -24 -2 -2 -2 -10 4 -17 13 -7 9
-21 14 -30 12z m70 -61 c2 -21 0 -23 -13 -12 -18 15 -20 37 -2 37 7 0 14 -11
15 -25z"/>
<path d="M4440 1530 c0 -5 5 -10 11 -10 5 0 7 5 4 10 -3 6 -8 10 -11 10 -2 0
-4 -4 -4 -10z"/>
<path d="M4083 1523 c-9 -3 -10 -10 -3 -24 12 -21 40 -26 40 -6 0 8 4 7 10 -3
8 -13 10 -12 10 3 0 20 -11 22 -28 5 -6 -6 -15 -8 -19 -4 -4 4 -1 11 6 15 15
10 2 21 -16 14z"/>
<path d="M4256 1494 c-8 -22 -6 -23 22 -13 13 5 20 13 17 19 -10 15 -32 12
-39 -6z"/>
<path d="M4020 1496 c0 -2 7 -7 16 -10 8 -3 12 -2 9 4 -6 10 -25 14 -25 6z"/>
<path d="M4420 1469 c0 -5 5 -7 10 -4 6 3 10 8 10 11 0 2 -4 4 -10 4 -5 0 -10
-5 -10 -11z"/>
<path d="M2536 1139 c3 -6 3 -14 -2 -18 -5 -3 -15 -16 -22 -28 -10 -19 -10
-23 0 -23 15 1 50 65 41 74 -11 11 -24 6 -17 -5z"/>
<path d="M2495 1050 c-4 -6 -2 -10 4 -10 6 0 8 -6 5 -13 -2 -7 4 -13 16 -14
25 -2 26 8 0 29 -11 10 -22 13 -25 8z"/>
<path d="M4945 1040 c-10 -11 -13 -20 -8 -20 13 0 38 29 31 35 -3 3 -13 -4
-23 -15z"/>
<path d="M5090 1039 c0 -5 5 -7 10 -4 6 3 10 8 10 11 0 2 -4 4 -10 4 -5 0 -10
-5 -10 -11z"/>
<path d="M2435 1020 c-3 -6 1 -7 9 -4 18 7 21 14 7 14 -6 0 -13 -4 -16 -10z"/>
<path d="M2355 979 c-16 -11 -23 -18 -15 -15 8 3 23 9 33 12 9 4 17 10 17 15
0 12 -1 12 -35 -12z"/>
<path d="M2417 983 c-10 -10 -23 -18 -30 -18 -6 0 -13 -4 -14 -10 -1 -5 4 -9
12 -7 9 2 11 -4 8 -19 -4 -16 -8 -18 -15 -7 -7 10 -12 8 -27 -9 -13 -16 -25
-20 -42 -16 -21 6 -22 5 -11 -10 8 -9 20 -13 28 -10 8 3 14 -1 14 -8 -1 -19
-25 -50 -33 -42 -4 3 -9 -2 -13 -11 -12 -31 5 -28 41 7 21 20 31 37 24 39 -7
2 8 10 32 17 52 16 71 29 62 45 -4 6 0 5 9 -2 11 -9 17 -9 20 -2 2 6 11 8 21
4 10 -4 16 -13 13 -21 -3 -8 2 -17 12 -20 9 -4 23 -12 29 -19 10 -9 9 -13 -3
-18 -22 -8 -24 -8 -20 7 1 6 1 9 -1 5 -2 -4 -12 -5 -21 -2 -13 4 -13 2 3 -11
11 -9 19 -23 17 -31 -4 -17 15 -19 20 -2 3 7 13 13 23 13 10 0 20 6 23 14 3 8
0 11 -7 7 -7 -5 -11 1 -11 14 0 29 -18 60 -34 60 -8 0 -16 7 -20 15 -6 17 -57
11 -93 -11 -12 -8 -24 -14 -26 -14 -10 0 7 56 21 73 20 22 12 22 -11 0z"/>
<path d="M4968 978 c5 -5 16 -8 23 -6 8 3 3 7 -10 11 -17 4 -21 3 -13 -5z"/>
<path d="M2266 921 c-3 -4 6 -6 19 -3 14 2 25 6 25 8 0 8 -39 4 -44 -5z"/>
<path d="M2173 888 c-12 -6 -24 -17 -27 -24 -4 -11 0 -10 19 2 14 9 25 12 25
6 0 -5 -7 -13 -16 -16 -9 -4 -14 -9 -11 -12 3 -3 19 4 36 17 22 16 27 25 19
31 -16 9 -17 9 -45 -4z"/>
<path d="M2250 866 c0 -7 7 -13 15 -13 8 0 15 4 15 8 0 4 -7 9 -15 13 -9 3
-15 0 -15 -8z"/>
<path d="M2290 860 c0 -6 7 -10 15 -10 8 0 15 2 15 4 0 2 -7 6 -15 10 -8 3
-15 1 -15 -4z"/>
<path d="M2111 841 c-8 -5 -20 -7 -28 -4 -7 3 -13 0 -13 -5 0 -17 20 -25 34
-13 7 6 15 9 18 6 2 -3 5 2 5 10 0 8 -1 15 -1 15 -1 0 -7 -4 -15 -9z"/>
<path d="M2042 825 c-7 -8 -9 -15 -4 -15 10 0 10 -30 0 -45 -4 -6 3 -10 15
-10 12 1 23 4 24 8 3 13 -10 47 -18 47 -5 0 -6 7 -3 15 8 19 3 19 -14 0z"/>
<path d="M2164 814 c12 -31 12 -36 -1 -41 -7 -3 -13 0 -13 7 0 6 5 8 12 4 7
-4 8 -3 4 5 -7 11 -26 6 -26 -7 1 -20 19 -34 39 -27 27 8 27 29 -1 57 -19 19
-21 19 -14 2z"/>
<path d="M2235 820 c-3 -5 -1 -10 4 -10 6 0 11 5 11 10 0 6 -2 10 -4 10 -3 0
-8 -4 -11 -10z"/>
<path d="M2350 819 c0 -7 -8 -18 -17 -25 -16 -12 -15 -13 10 -14 17 0 26 -4
22 -10 -12 -19 15 -41 36 -30 17 10 17 12 1 40 -9 16 -21 30 -26 30 -5 0 -2
-8 5 -17 13 -16 12 -17 -3 -5 -9 8 -14 20 -11 28 3 8 0 14 -6 14 -6 0 -11 -5
-11 -11z"/>
<path d="M2104 780 c2 -16 -1 -30 -7 -30 -6 0 -8 -2 -5 -5 3 -3 15 -2 28 3 20
7 21 10 6 15 -13 5 -15 11 -6 27 9 16 8 20 -4 20 -11 0 -15 -8 -12 -30z"/>
<path d="M1335 790 c3 -5 11 -10 16 -10 6 0 7 5 4 10 -3 6 -11 10 -16 10 -6 0
-7 -4 -4 -10z"/>
<path d="M1658 785 c22 -16 22 -18 5 -32 -17 -13 -17 -14 2 -5 21 9 45 8 84
-4 21 -6 23 -4 18 11 -6 13 -3 16 9 11 14 -5 15 -4 4 9 -11 14 -14 13 -26 -2
-11 -15 -13 -15 -14 -3 0 9 -8 16 -17 16 -10 0 -34 4 -53 8 -35 8 -35 8 -12
-9z"/>
<path d="M2272 750 c-13 -16 -19 -30 -15 -30 14 0 63 47 56 54 -11 11 -19 7
-41 -24z"/>
<path d="M2330 761 c0 -6 5 -13 10 -16 6 -3 10 1 10 9 0 9 -4 16 -10 16 -5 0
-10 -4 -10 -9z"/>
<path d="M2044 742 c-6 -4 -14 -15 -17 -26 -6 -15 -10 -16 -22 -6 -8 6 -22 10
-32 7 -14 -4 -13 -5 5 -6 17 -1 22 -7 22 -26 0 -14 -3 -24 -7 -24 -22 4 -44
-2 -39 -10 3 -4 18 -6 33 -3 16 2 25 1 21 -3 -4 -4 -26 -11 -50 -15 -34 -7
-45 -5 -56 8 -7 10 -11 12 -8 7 2 -6 -4 -16 -15 -23 -16 -10 -19 -9 -19 3 0 8
-9 15 -20 15 -21 0 -27 -24 -9 -36 8 -5 8 -9 -1 -14 -8 -5 -2 -12 19 -21 25
-11 28 -15 13 -20 -9 -4 3 -6 28 -4 60 3 61 4 20 20 -25 10 -29 14 -15 15 11
1 30 3 43 4 16 2 21 -2 18 -11 -3 -7 1 -13 10 -13 11 0 13 6 9 20 -9 27 11 50
41 50 27 0 32 17 9 26 -22 9 -18 30 8 51 28 23 38 54 11 35z m-133 -138 c12
-14 11 -16 -5 -13 -11 2 -21 10 -24 17 -5 17 13 15 29 -4z m49 12 c0 -2 -7 -9
-15 -16 -13 -11 -14 -10 -9 4 5 14 24 23 24 12z"/>
<path d="M2426 734 c-3 -8 -10 -13 -15 -9 -5 3 -12 1 -16 -5 -11 -17 19 -11
45 10 19 15 21 20 9 20 -9 0 -20 -7 -23 -16z"/>
<path d="M1410 725 c0 -7 30 -13 34 -7 3 4 -4 9 -15 9 -10 1 -19 0 -19 -2z"/>
<path d="M1740 708 c0 -15 7 -29 18 -33 16 -6 16 -7 -2 -20 -17 -13 -17 -14
10 -12 21 1 28 -2 26 -13 -2 -11 2 -10 12 4 11 14 23 17 46 13 35 -8 37 -4 10
23 -16 16 -20 17 -20 5 0 -32 -71 -12 -76 21 -1 9 -7 21 -13 27 -8 8 -11 3
-11 -15z"/>
<path d="M1862 695 c2 -17 8 -25 18 -23 8 1 21 -1 29 -6 9 -6 12 -5 7 2 -3 5
-3 12 1 15 5 2 3 3 -3 1 -6 -1 -16 7 -22 17 -17 27 -32 24 -30 -6z"/>
<path d="M2220 699 c0 -5 5 -7 10 -4 6 3 10 8 10 11 0 2 -4 4 -10 4 -5 0 -10
-5 -10 -11z"/>
<path d="M1520 690 c-13 -8 -12 -10 3 -10 9 0 17 5 17 10 0 12 -1 12 -20 0z"/>
<path d="M1697 689 c7 -7 15 -10 18 -7 3 3 -2 9 -12 12 -14 6 -15 5 -6 -5z"/>
<path d="M1963 685 c0 -8 4 -12 9 -9 5 3 6 10 3 15 -9 13 -12 11 -12 -6z"/>
<path d="M1543 673 c-38 -7 -34 -29 6 -28 24 0 36 5 36 14 0 16 -11 20 -42 14z"/>
<path d="M2215 671 c-3 -5 -1 -12 4 -15 5 -3 11 1 15 9 6 16 -9 21 -19 6z"/>
<path d="M2187 642 c-18 -4 -18 -4 0 -19 17 -14 17 -14 -2 -8 -15 5 -17 3 -8
-6 13 -13 36 -2 27 13 -5 7 -1 9 9 5 10 -3 17 -2 17 2 0 12 -21 18 -43 13z"/>
<path d="M2060 620 c0 -5 4 -10 9 -10 6 0 13 5 16 10 3 6 -1 10 -9 10 -9 0
-16 -4 -16 -10z"/>
<path d="M1553 607 c5 -15 29 -16 34 -2 2 6 -6 11 -18 12 -12 1 -19 -3 -16
-10z"/>
<path d="M1995 592 c-3 -10 0 -12 10 -8 9 3 15 0 15 -9 0 -18 16 -20 26 -3 5
7 2 8 -7 3 -11 -6 -12 -5 -1 6 6 7 12 17 12 21 0 14 -49 4 -55 -10z"/>
<path d="M1445 589 c-3 -3 6 -9 19 -11 16 -3 23 -1 20 7 -5 13 -32 16 -39 4z"/>
<path d="M2085 580 c-3 -5 -1 -10 4 -10 6 0 11 5 11 10 0 6 -2 10 -4 10 -3 0
-8 -4 -11 -10z"/>
<path d="M1550 573 c0 -1 9 -7 20 -13 16 -8 20 -8 20 4 0 9 -8 14 -20 13 -11
-1 -20 -2 -20 -4z"/>
<path d="M1520 560 c0 -5 7 -10 16 -10 8 0 12 5 9 10 -3 6 -10 10 -16 10 -5 0
-9 -4 -9 -10z"/>
</g>
</svg>
